<svg width="24" height="24" viewBox="0 0 24 24" fill="none" xmlns="http://www.w3.org/2000/svg">
<path d="M13.5034 21H4.57497C3.55126 21 2.71875 20.1502 2.71875 19.1053V13.4211C2.71875 12.3761 3.55126 11.5263 4.57497 11.5263H9.35102C10.0409 11.524 10.7175 11.7189 11.3044 12.0889C11.8914 12.4589 12.365 12.9893 12.6718 13.62L13.2444 14.79L16.2005 12.3771C16.5652 12.084 16.9951 11.8871 17.4521 11.804C17.9091 11.7209 18.3791 11.7541 18.8205 11.9005L20.6471 12.522C20.7914 12.5712 20.9217 12.6559 21.0265 12.7686C21.1312 12.8813 21.2072 13.0186 21.2477 13.1684C21.2883 13.3181 21.2921 13.4757 21.2589 13.6274C21.2257 13.779 21.1564 13.9199 21.0573 14.0378L16.3221 19.6765C15.9738 20.0918 15.5414 20.4252 15.0549 20.6537C14.5683 20.8821 14.039 21.0003 13.5034 21Z" fill="#101419"/>
<path d="M15.6965 3.00001H15.7123H15.7141C16.0798 2.99907 16.4419 3.07219 16.7797 3.21513C17.1174 3.35807 17.424 3.568 17.6817 3.83275C18.2061 4.36896 18.4966 5.08232 18.4966 5.84211C18.4966 6.6019 18.207 7.31527 17.6808 7.85148L14.529 11.2317C14.4419 11.3242 14.3374 11.3978 14.2219 11.4481C14.1063 11.4984 13.9819 11.5244 13.8563 11.5245C13.7306 11.5246 13.6062 11.4988 13.4906 11.4486C13.3749 11.3985 13.2704 11.325 13.1832 11.2326L10.0146 7.83537C9.50602 7.31527 9.21552 6.6019 9.21552 5.84211C9.21552 5.08232 9.50602 4.36896 10.0313 3.8318C10.5548 3.29654 11.2546 3.00001 11.998 3.00001H12.0017L12.0295 3.00096C12.2096 3.00475 12.9734 3.05401 13.8561 3.6679C14.7628 3.03696 15.5452 3.0019 15.6965 3.00001Z" fill="#101419"/>
</svg>
