<svg width="24" height="24" viewBox="0 0 24 24" fill="none" xmlns="http://www.w3.org/2000/svg">
<path d="M13.3953 20.9925H4.86682C3.88897 20.9925 3.09375 20.143 3.09375 19.0985V13.4167C3.09375 12.3722 3.88897 11.5227 4.86682 11.5227H9.42894C10.0879 11.5204 10.7342 11.7152 11.2949 12.0851C11.8555 12.455 12.3079 12.9851 12.601 13.6156L13.148 14.7851L15.9716 12.3731C16.32 12.0802 16.7306 11.8834 17.1671 11.8003C17.6036 11.7173 18.0526 11.7504 18.4743 11.8968L20.219 12.518C20.3569 12.5672 20.4813 12.6518 20.5814 12.7645C20.6815 12.8772 20.754 13.0144 20.7928 13.1641C20.8315 13.3138 20.8351 13.4713 20.8034 13.6229C20.7717 13.7745 20.7055 13.9153 20.6108 14.0332L16.0877 19.6695C15.755 20.0847 15.3421 20.4179 14.8773 20.6463C14.4125 20.8746 13.9069 20.9928 13.3953 20.9925Z" fill="#F6F8FA"/>
<path d="M15.4902 3.00001H15.507C15.8563 2.99907 16.2022 3.07216 16.5248 3.21504C16.8475 3.35793 17.1403 3.56776 17.3865 3.8324C17.8874 4.36838 18.1649 5.08145 18.1649 5.84092C18.1649 6.60039 17.8883 7.31346 17.3856 7.84945L14.3749 11.2282C14.2918 11.3207 14.192 11.3943 14.0816 11.4446C13.9712 11.4949 13.8524 11.5208 13.7324 11.5209C13.6123 11.521 13.4935 11.4952 13.3831 11.4451C13.2726 11.395 13.1727 11.3215 13.0894 11.2292L10.0628 7.83335C9.57699 7.31346 9.2995 6.60039 9.2995 5.84092C9.2995 5.08145 9.57699 4.36838 10.0788 3.83145C10.5788 3.29641 11.2472 3.00001 11.9573 3.00001H11.9609L11.9875 3.00096C12.1595 3.00474 12.8891 3.05399 13.7322 3.66762C14.5983 3.03694 15.3457 3.0019 15.4902 3.00001Z" fill="#F6F8FA"/>
<path fill-rule="evenodd" clip-rule="evenodd" d="M13.396 19.8104C13.7243 19.8106 14.0516 19.7349 14.356 19.5854C14.6608 19.4356 14.938 19.2139 15.1653 18.9303L19.5075 13.5194L18.0829 13.0122C17.8569 12.9344 17.6191 12.9176 17.3881 12.9616C17.1567 13.0056 16.932 13.1108 16.7353 13.2754L12.7351 16.6924L11.529 14.1138C11.3249 13.6747 11.015 13.3166 10.6439 13.0718C10.2737 12.8275 9.85447 12.7033 9.43313 12.7048L9.42894 12.7048L4.86682 12.7048C4.61403 12.7048 4.27582 12.9504 4.27582 13.4167V19.0985C4.27582 19.5648 4.61403 19.8104 4.86682 19.8104H13.396ZM18.4743 11.8968L20.219 12.518C20.3569 12.5672 20.4813 12.6518 20.5814 12.7645C20.6815 12.8772 20.754 13.0144 20.7928 13.1641C20.8315 13.3138 20.8351 13.4713 20.8034 13.6229C20.7717 13.7745 20.7055 13.9153 20.6108 14.0332L16.0877 19.6695C15.755 20.0847 15.3421 20.4179 14.8773 20.6463C14.4125 20.8746 13.9069 20.9928 13.3953 20.9925H4.86682C3.88897 20.9925 3.09375 20.143 3.09375 19.0985V13.4167C3.09375 12.3722 3.88897 11.5227 4.86682 11.5227H9.42894C10.0879 11.5204 10.7342 11.7152 11.2949 12.0851C11.8555 12.455 12.3079 12.9851 12.601 13.6156L13.148 14.7851L15.9716 12.3731C16.32 12.0802 16.7306 11.8834 17.1671 11.8003C17.6036 11.7173 18.0526 11.7504 18.4743 11.8968ZM10.0628 7.83335L13.0894 11.2292C13.1727 11.3215 13.2726 11.395 13.3831 11.4451C13.4935 11.4952 13.6123 11.521 13.7324 11.5209C13.8524 11.5208 13.9712 11.4949 14.0816 11.4446C14.192 11.3943 14.2918 11.3207 14.3749 11.2282L17.3856 7.84945C17.8883 7.31346 18.1649 6.60039 18.1649 5.84092C18.1649 5.08145 17.8874 4.36838 17.3865 3.8324C17.1403 3.56776 16.8475 3.35793 16.5248 3.21504C16.2022 3.07216 15.8563 2.99907 15.507 3.00001H15.4902C15.3457 3.0019 14.5983 3.03694 13.7322 3.66762C12.8891 3.05399 12.1595 3.00474 11.9875 3.00096L11.9609 3.00001H11.9573C11.2472 3.00001 10.5788 3.29641 10.0788 3.83145C9.57699 4.36838 9.2995 5.08145 9.2995 5.84092C9.2995 6.60039 9.57699 7.31346 10.0628 7.83335ZM11.9422 4.18216L11.9534 4.18256L11.9615 4.18274C11.9737 4.183 12.4453 4.19301 13.0366 4.62335L13.7323 5.12975L14.428 4.62321C14.7363 4.39874 15.0093 4.28994 15.201 4.23617C15.2977 4.20905 15.3752 4.19554 15.4276 4.18879C15.4537 4.18541 15.4736 4.18373 15.4865 4.18288C15.4935 4.18241 15.4986 4.18219 15.5018 4.18208L15.507 4.18208L15.5102 4.18207C15.6918 4.18158 15.8737 4.21946 16.0462 4.29585C16.2189 4.37236 16.3811 4.48706 16.521 4.63749L16.5228 4.63949C16.8126 4.94953 16.9828 5.37139 16.9828 5.84092C16.9828 6.31125 16.813 6.73202 16.5234 7.04083L16.5131 7.05182L13.7317 10.1732L10.936 7.03645L10.9265 7.02628C10.655 6.73577 10.4816 6.31534 10.4816 5.84092C10.4816 5.37168 10.6516 4.94973 10.9424 4.63855C11.2236 4.33769 11.5772 4.18623 11.9422 4.18216Z" fill="#D3DBE6"/>
</svg>
