<svg width="24" height="24" viewBox="0 0 24 24" fill="none" xmlns="http://www.w3.org/2000/svg">
<path d="M20.1569 4.3952C18.0128 2.56975 14.8064 2.87268 12.8157 4.92632L12.0407 5.72889L11.2657 4.93025C9.66054 3.27003 6.42271 2.27075 3.92452 4.3952C1.45386 6.50392 1.32403 10.2886 3.53503 12.5704L11.1477 20.4309C11.3916 20.6827 11.7142 20.8125 12.0368 20.8125C12.3594 20.8125 12.682 20.6866 12.9259 20.4309L20.5385 12.5704C22.7574 10.2886 22.6276 6.50392 20.1569 4.3952ZM19.6415 11.697L12.0564 19.5575L4.43989 11.697C2.92917 10.1391 2.61444 7.16879 4.74282 5.35514C6.89875 3.51395 9.43236 4.84763 10.3608 5.80757L12.0407 7.54254L13.7206 5.80757C14.6333 4.86337 17.1905 3.52575 19.3386 5.35514C21.4631 7.16486 21.1523 10.1352 19.6415 11.697Z" fill="#F69424"/>
<path d="M12.0566 19.0814L16.1638 14.8247H7.93355L12.0566 19.0814Z" fill="#F69424"/>
</svg>
