<svg width="24" height="24" viewBox="0 0 24 24" fill="none" xmlns="http://www.w3.org/2000/svg">
<path d="M20.3222 9.76927H3.75931C3.93242 10.4302 4.26288 11.04 4.72318 11.5161L7.4771 14.3565H16.6201L19.3622 11.5161C19.8186 11.04 20.1491 10.4302 20.3222 9.76927Z" fill="#2D89B0"/>
<path d="M16.1638 14.8247L12.0565 19.0815L7.93347 14.8247H16.1638Z" fill="#2D89B0"/>
<path fill-rule="evenodd" clip-rule="evenodd" d="M20.1569 4.39522C18.0128 2.56975 14.8064 2.87269 12.8157 4.92632L12.0407 5.72888L11.2657 4.93026C9.66053 3.27003 6.42271 2.27074 3.92452 4.39522C1.45386 6.50392 1.32402 10.2886 3.53503 12.5704L11.1477 20.4309C11.3916 20.6827 11.7142 20.8125 12.0368 20.8125C12.3594 20.8125 12.682 20.6866 12.9259 20.4309L20.5385 12.5704C22.7574 10.2886 22.6276 6.50392 20.1569 4.39522ZM19.6415 11.697L12.0565 19.5575L4.43989 11.697C2.92917 10.1391 2.61444 7.16879 4.74282 5.35515C6.89874 3.51394 9.43236 4.84764 10.3608 5.80757L12.0407 7.54255L13.7206 5.80757C14.6333 4.86338 17.1905 3.52575 19.3386 5.35515C21.463 7.16485 21.1522 10.1352 19.6415 11.697Z" fill="#2D89B0"/>
</svg>
