<svg width="24" height="24" viewBox="0 0 24 24" fill="none" xmlns="http://www.w3.org/2000/svg">
<path d="M20.1569 4.3952C18.0128 2.56975 14.8064 2.87268 12.8157 4.92632L12.0407 5.72889L11.2657 4.93025C9.66054 3.27003 6.42271 2.27075 3.92452 4.3952C1.45386 6.50392 1.32403 10.2886 3.53503 12.5704L11.1477 20.4309C11.3916 20.6827 11.7142 20.8125 12.0368 20.8125C12.3594 20.8125 12.682 20.6866 12.9259 20.4309L20.5385 12.5704C22.7574 10.2886 22.6276 6.50392 20.1569 4.3952ZM19.6415 11.697L12.0564 19.5575L4.43989 11.697C2.92917 10.1391 2.61444 7.16879 4.74282 5.35514C6.89875 3.51395 9.43235 4.84763 10.3608 5.80757L12.0407 7.54254L13.7206 5.80757C14.6333 4.86337 17.1905 3.52575 19.3386 5.35514C21.463 7.16486 21.1523 10.1352 19.6415 11.697Z" fill="#F9535A"/>
<path d="M10.9706 15.6115C10.9706 15.3283 11.0729 15.0961 11.2775 14.9152C11.4821 14.7342 11.7378 14.6437 12.0407 14.6437C12.3476 14.6437 12.5994 14.7342 12.8039 14.9152C13.0085 15.0961 13.1108 15.3283 13.1108 15.6115C13.1108 15.8948 13.0085 16.1269 12.8039 16.3079C12.5994 16.4888 12.3436 16.5793 12.0407 16.5793C11.7338 16.5793 11.4821 16.4888 11.2775 16.3079C11.0729 16.1269 10.9706 15.8948 10.9706 15.6115ZM12.8354 13.8411H11.2735L11.0296 8.15234H13.0833L12.8354 13.8411Z" fill="#F9535A"/>
</svg>
