<svg width="24" height="24" viewBox="0 0 24 24" fill="none" xmlns="http://www.w3.org/2000/svg">
<path d="M20.0844 4.3952C17.9488 2.56975 14.7553 2.87268 12.7725 4.92632L12.0006 5.72889L11.2286 4.93025C9.62989 3.27003 6.40497 2.27075 3.91672 4.3952C1.45591 6.50392 1.3266 10.2886 3.52879 12.5704L11.1111 20.4309C11.354 20.6827 11.6753 20.8125 11.9967 20.8125C12.318 20.8125 12.6393 20.6866 12.8822 20.4309L20.4645 12.5704C22.6746 10.2886 22.5452 6.50392 20.0844 4.3952ZM19.5711 11.697L12.0162 19.5575L4.43004 11.697C2.92534 10.1391 2.61186 7.16879 4.73177 5.35514C6.8791 3.51395 9.40261 4.84763 10.3274 5.80757L12.0006 7.54254L13.6738 5.80757C14.5829 4.86337 17.1299 3.52575 19.2694 5.35514C21.3854 7.16486 21.0758 10.1352 19.5711 11.697Z" fill="#2DB071"/>
<path d="M20.3823 8.51035C20.347 7.75105 20.0805 6.65342 19.0147 5.74462C18.3799 5.20171 17.6628 4.92631 16.8752 4.92631C15.6918 4.92631 14.528 5.57152 13.952 6.16951L12.0006 8.19955L10.0453 6.17345C9.46535 5.56758 8.30547 4.91845 7.12992 4.91845C6.34622 4.91845 5.62522 5.19777 4.98651 5.74462C3.92068 6.65735 3.65422 7.75498 3.61895 8.51428C3.6072 8.77787 3.61895 9.03752 3.65814 9.29718H20.347C20.3823 9.03752 20.394 8.77394 20.3823 8.51035Z" fill="#2DB071"/>
<path d="M20.249 9.76928H3.75218C3.9246 10.4302 4.25375 11.04 4.71221 11.5161L7.45516 14.3565H16.5617L19.2929 11.5161C19.7475 11.04 20.0766 10.4302 20.249 9.76928Z" fill="#2DB071"/>
<path d="M12.0163 19.0815L16.1072 14.8247H7.90971L12.0163 19.0815Z" fill="#2DB071"/>
</svg>
