<svg width="24" height="24" viewBox="0 0 24 24" fill="none" xmlns="http://www.w3.org/2000/svg">
<path d="M12 3.2631C16.7981 3.2631 20.7369 7.1492 20.7369 12C20.7369 16.8252 16.8292 20.7369 12 20.7369C7.17675 20.7369 3.2631 16.8311 3.2631 12C3.2631 7.17841 7.17052 3.2631 12 3.2631ZM12 1.96875C6.46028 1.96875 1.96875 6.4619 1.96875 12C1.96875 17.5413 6.46028 22.0312 12 22.0312C17.5397 22.0312 22.0312 17.5413 22.0312 12C22.0312 6.4619 17.5397 1.96875 12 1.96875ZM11.5352 6.82258H12.4647C12.7407 6.82258 12.9612 7.05241 12.9497 7.32819L12.6666 14.1236C12.6557 14.3836 12.4418 14.5887 12.1816 14.5887H11.8184C11.5582 14.5887 11.3442 14.3835 11.3334 14.1236L11.0503 7.32819C11.0388 7.05241 11.2593 6.82258 11.5352 6.82258ZM12 15.3977C11.3745 15.3977 10.8674 15.9047 10.8674 16.5302C10.8674 17.1557 11.3745 17.6628 12 17.6628C12.6255 17.6628 13.1326 17.1557 13.1326 16.5302C13.1326 15.9047 12.6255 15.3977 12 15.3977Z" fill="#101419"/>
</svg>
