<svg width="24" height="24" viewBox="0 0 24 24" fill="none" xmlns="http://www.w3.org/2000/svg">
<path d="M11.3795 8.66016H12.616C12.7344 8.66016 12.8285 8.75757 12.825 8.87585L12.5638 15.6947C12.5603 15.806 12.4662 15.8965 12.3548 15.8965H11.6407C11.5292 15.8965 11.4352 15.8095 11.4317 15.6947L11.1705 8.87585C11.167 8.75757 11.261 8.66016 11.3795 8.66016ZM11.9995 16.5923C11.4596 16.5923 11.0242 17.0272 11.0242 17.5664C11.0242 18.1057 11.4596 18.5405 11.9995 18.5405C12.5394 18.5405 12.9748 18.1057 12.9748 17.5664C12.9748 17.0272 12.5394 16.5923 11.9995 16.5923ZM21.8047 18.4014L13.4485 3.92871C12.8076 2.81543 11.1949 2.81543 10.5505 3.92871L2.19422 18.4014C1.55331 19.5112 2.35445 20.9062 3.64324 20.9062H20.3592C21.641 20.9062 22.4491 19.5146 21.8047 18.4014ZM20.3592 19.793H3.63976C3.21132 19.793 2.94311 19.3303 3.15559 18.958L11.5153 4.48535C11.7278 4.11658 12.2677 4.1131 12.4802 4.48535L20.8399 18.958C21.0558 19.3268 20.7876 19.793 20.3592 19.793Z" fill="#101419"/>
</svg>
