<svg width="24" height="24" viewBox="0 0 24 24" fill="none" xmlns="http://www.w3.org/2000/svg">
<path d="M20.2939 3H3.6123C2.54965 3 1.6875 3.86384 1.6875 4.92857V7.5C1.6875 7.85357 1.97622 8.14286 2.3291 8.14286H2.9707V19.0714C2.9707 20.1362 3.83286 21 4.89551 21H19.0107C20.0734 21 20.9355 20.1362 20.9355 19.0714V8.14286H21.5771C21.93 8.14286 22.2188 7.85357 22.2188 7.5V4.92857C22.2188 3.86384 21.3566 3 20.2939 3ZM19.6523 19.0714C19.6523 19.425 19.3636 19.7143 19.0107 19.7143H4.89551C4.54263 19.7143 4.25391 19.425 4.25391 19.0714V8.14286H19.6523V19.0714ZM20.9355 6.85714H2.9707V4.92857C2.9707 4.575 3.25942 4.28571 3.6123 4.28571H20.2939C20.6468 4.28571 20.9355 4.575 20.9355 4.92857V6.85714ZM9.86792 12H14.0383C14.303 12 14.5195 11.783 14.5195 11.5179V11.1964C14.5195 10.9313 14.303 10.7143 14.0383 10.7143H9.86792C9.60326 10.7143 9.38672 10.9313 9.38672 11.1964V11.5179C9.38672 11.783 9.60326 12 9.86792 12Z" fill="#101419"/>
</svg>
