<svg width="24" height="24" viewBox="0 0 24 24" fill="none" xmlns="http://www.w3.org/2000/svg">
<path d="M11.6625 2.12684L11.3459 2.4448C11.136 2.65555 11.136 2.99725 11.3459 3.20804L19.3393 11.2355H2.50614C2.20937 11.2355 1.96875 11.4771 1.96875 11.7752V12.2249C1.96875 12.5229 2.20937 12.7646 2.50614 12.7646H19.3393L11.3459 20.792C11.136 21.0027 11.136 21.3444 11.3459 21.5552L11.6625 21.8732C11.8724 22.0839 12.2126 22.0839 12.4225 21.8732L21.8739 12.3816C22.0837 12.1709 22.0837 11.8292 21.8739 11.6184L12.4225 2.12684C12.2126 1.91605 11.8724 1.91605 11.6625 2.12684Z" fill="#101419"/>
</svg>
