<svg width="24" height="24" viewBox="0 0 24 24" fill="none" xmlns="http://www.w3.org/2000/svg">
<path d="M1.96875 12C1.96875 17.5415 6.45854 22.0312 12 22.0312C17.5415 22.0312 22.0312 17.5415 22.0312 12C22.0312 6.45854 17.5415 1.96875 12 1.96875C6.45854 1.96875 1.96875 6.45854 1.96875 12ZM12 3.2631C16.8012 3.2631 20.7369 7.15021 20.7369 12C20.7369 16.8012 16.8498 20.7369 12 20.7369C7.19875 20.7369 3.2631 16.8498 3.2631 12C3.2631 7.19875 7.15021 3.2631 12 3.2631ZM15.5028 12.3438L10.8472 16.9954C10.6571 17.1855 10.3497 17.1855 10.1596 16.9954L9.8724 16.7082C9.6823 16.5181 9.6823 16.2107 9.8724 16.0206L13.9011 12L9.87645 7.97537C9.68634 7.78526 9.68634 7.47785 9.87645 7.28774L10.1636 7.00055C10.3537 6.81045 10.6612 6.81045 10.8513 7.00055L15.5069 11.6521C15.693 11.8463 15.693 12.1537 15.5028 12.3438Z" fill="black"/>
</svg>
