<svg width="24" height="24" viewBox="0 0 24 24" fill="none" xmlns="http://www.w3.org/2000/svg">
<path d="M12.3816 21.8732L12.6996 21.5552C12.9104 21.3444 12.9104 21.0027 12.6996 20.792L4.6722 12.7645H21.577C21.875 12.7645 22.1167 12.5229 22.1167 12.2248V11.7751C22.1167 11.4771 21.875 11.2354 21.577 11.2354H4.6722L12.6996 3.20801C12.9104 2.99726 12.9104 2.65556 12.6996 2.44477L12.3816 2.12681C12.1709 1.91606 11.8292 1.91606 11.6184 2.12681L2.12681 11.6184C1.91606 11.8291 1.91606 12.1708 2.12681 12.3816L11.6184 21.8732C11.8292 22.0839 12.1709 22.0839 12.3816 21.8732Z" fill="#101419"/>
</svg>
