<svg width="24" height="24" viewBox="0 0 24 24" fill="none" xmlns="http://www.w3.org/2000/svg">
<path d="M21.4991 10.0044L15.4728 3.70467C14.6273 2.82072 13.1133 3.40952 13.1133 4.65143V7.66989C7.44809 7.73786 2.15625 8.7633 2.15625 14.6214C2.15625 17.8736 4.06825 19.7655 5.20813 20.5989C6.03788 21.2057 7.19481 20.4279 6.9092 19.4172C5.61241 14.8165 7.82566 14.3058 13.1133 14.2438V17.2515C13.1133 18.4923 14.6264 19.0831 15.4728 18.1982L21.4991 11.8979C22.0055 11.3682 22.0055 10.5341 21.4991 10.0044ZM20.7072 11.1405L14.6808 17.4408C14.5119 17.6175 14.209 17.5001 14.209 17.2515V13.1426C8.34026 13.1426 4.09725 13.475 5.85493 19.7065C4.62158 18.8046 3.25195 17.1689 3.25195 14.6214C3.25195 9.14258 8.82929 8.75977 14.209 8.75977V4.65088C14.209 4.40223 14.5121 4.28485 14.6808 4.46153L20.7072 10.7618C20.7561 10.8127 20.7835 10.8806 20.7835 10.9512C20.7835 11.0218 20.7561 11.0896 20.7072 11.1405Z" fill="black"/>
</svg>
