<svg width="24" height="24" viewBox="0 0 24 24" fill="none" xmlns="http://www.w3.org/2000/svg">
<path d="M22.0312 12C22.0312 6.45854 17.5415 1.96875 12 1.96875C6.45854 1.96875 1.96875 6.45854 1.96875 12C1.96875 17.5415 6.45854 22.0312 12 22.0312C17.5415 22.0312 22.0312 17.5415 22.0312 12ZM12 20.7369C7.19875 20.7369 3.2631 16.8498 3.2631 12C3.2631 7.19875 7.15021 3.2631 12 3.2631C16.8012 3.2631 20.7369 7.15021 20.7369 12C20.7369 16.8012 16.8498 20.7369 12 20.7369ZM8.49715 11.6562L13.1528 7.0046C13.3429 6.81449 13.6503 6.81449 13.8404 7.0046L14.1276 7.29178C14.3177 7.48189 14.3177 7.7893 14.1276 7.97941L10.0989 12L14.1236 16.0246C14.3137 16.2147 14.3137 16.5222 14.1236 16.7123L13.8364 16.9994C13.6463 17.1896 13.3388 17.1896 13.1487 16.9994L8.49311 12.3479C8.30704 12.1537 8.30704 11.8463 8.49715 11.6562Z" fill="black"/>
</svg>
