<svg width="24" height="24" viewBox="0 0 24 24" fill="none" xmlns="http://www.w3.org/2000/svg">
<path d="M3.45645 20.7672L3.23275 20.5435C3.04742 20.3582 3.04742 20.0577 3.23275 19.8723L9.79258 13.3125H7.36522C7.10312 13.3125 6.89061 13.1 6.89061 12.8379V12.5215C6.89061 12.2594 7.10312 12.0469 7.36522 12.0469H11.3203C11.6698 12.0469 11.9531 12.3302 11.9531 12.6797V16.6348C11.9531 16.8969 11.7406 17.1094 11.4785 17.1094H11.1621C10.9 17.1094 10.6875 16.8969 10.6875 16.6348V14.2074L4.12767 20.7672C3.94229 20.9526 3.64179 20.9526 3.45645 20.7672ZM12.5859 12.0469H16.541C16.8031 12.0469 17.0156 11.8344 17.0156 11.5723V11.2558C17.0156 10.9937 16.8031 10.7812 16.541 10.7812H14.1137L20.6735 4.22142C20.8588 4.03608 20.8588 3.73558 20.6735 3.5502L20.4498 3.3265C20.2645 3.14117 19.964 3.14117 19.7786 3.3265L13.2188 9.88632V7.45897C13.2188 7.19686 13.0062 6.98436 12.7441 6.98436H12.4277C12.1656 6.98436 11.9531 7.19686 11.9531 7.45897V11.414C11.9531 11.7636 12.2364 12.0469 12.5859 12.0469Z" fill="#101419"/>
</svg>
