<svg width="24" height="24" viewBox="0 0 24 24" fill="none" xmlns="http://www.w3.org/2000/svg">
<path d="M7.7705 22.0312C6.47629 22.0312 5.18203 21.5379 4.19677 20.5512C2.22609 18.5778 2.22609 15.3669 4.19669 13.3936L14.4512 3.12463C15.9901 1.58346 18.4943 1.58346 20.0333 3.12463C21.5722 4.66583 21.5722 7.17345 20.0333 8.71458L11.3221 17.4381C10.2148 18.547 8.41296 18.5471 7.3055 17.4381C6.19816 16.3291 6.19816 14.5247 7.3055 13.4158L13.9692 6.74277C14.1525 6.55915 14.4498 6.55915 14.6332 6.74277L14.8547 6.96459C15.038 7.14821 15.038 7.44594 14.8547 7.6296L8.19106 14.3026C7.57201 14.9225 7.57201 15.9312 8.1911 16.5512C8.81015 17.1711 9.81744 17.1711 10.4365 16.5512L19.1477 7.82771C20.1984 6.77557 20.1984 5.06359 19.1477 4.01137C18.0969 2.95923 16.3874 2.95931 15.3368 4.01137L5.08229 14.2804C3.60002 15.7648 3.60002 18.18 5.08229 19.6644C6.56464 21.1487 8.97649 21.1488 10.4587 19.6644L18.9787 11.1324C19.1621 10.9488 19.4594 10.9488 19.6427 11.1324L19.8642 11.3542C20.0476 11.5379 20.0476 11.8356 19.8642 12.0192L11.3443 20.5512C10.359 21.5379 9.06476 22.0312 7.7705 22.0312Z" fill="#101419"/>
</svg>
