<svg width="24" height="24" viewBox="0 0 24 24" fill="none" xmlns="http://www.w3.org/2000/svg">
<path d="M18.1875 5.25H16.5V3.42188C16.5 3.18984 16.3102 3 16.0781 3H15.7969C15.5648 3 15.375 3.18984 15.375 3.42188V5.25H8.625V3.42188C8.625 3.18984 8.43516 3 8.20312 3H7.92188C7.68984 3 7.5 3.18984 7.5 3.42188V5.25H5.8125C4.88086 5.25 4.125 6.00586 4.125 6.9375V19.3125C4.125 20.2441 4.88086 21 5.8125 21H18.1875C19.1191 21 19.875 20.2441 19.875 19.3125V6.9375C19.875 6.00586 19.1191 5.25 18.1875 5.25ZM5.8125 6.375H18.1875C18.4969 6.375 18.75 6.62812 18.75 6.9375V8.625H5.25V6.9375C5.25 6.62812 5.50312 6.375 5.8125 6.375ZM18.1875 19.875H5.8125C5.50312 19.875 5.25 19.6219 5.25 19.3125V9.75H18.75V19.3125C18.75 19.6219 18.4969 19.875 18.1875 19.875ZM9.32812 14.25H7.92188C7.68984 14.25 7.5 14.0602 7.5 13.8281V12.4219C7.5 12.1898 7.68984 12 7.92188 12H9.32812C9.56016 12 9.75 12.1898 9.75 12.4219V13.8281C9.75 14.0602 9.56016 14.25 9.32812 14.25ZM12.7031 14.25H11.2969C11.0648 14.25 10.875 14.0602 10.875 13.8281V12.4219C10.875 12.1898 11.0648 12 11.2969 12H12.7031C12.9352 12 13.125 12.1898 13.125 12.4219V13.8281C13.125 14.0602 12.9352 14.25 12.7031 14.25ZM16.0781 14.25H14.6719C14.4398 14.25 14.25 14.0602 14.25 13.8281V12.4219C14.25 12.1898 14.4398 12 14.6719 12H16.0781C16.3102 12 16.5 12.1898 16.5 12.4219V13.8281C16.5 14.0602 16.3102 14.25 16.0781 14.25ZM12.7031 17.625H11.2969C11.0648 17.625 10.875 17.4352 10.875 17.2031V15.7969C10.875 15.5648 11.0648 15.375 11.2969 15.375H12.7031C12.9352 15.375 13.125 15.5648 13.125 15.7969V17.2031C13.125 17.4352 12.9352 17.625 12.7031 17.625ZM9.32812 17.625H7.92188C7.68984 17.625 7.5 17.4352 7.5 17.2031V15.7969C7.5 15.5648 7.68984 15.375 7.92188 15.375H9.32812C9.56016 15.375 9.75 15.5648 9.75 15.7969V17.2031C9.75 17.4352 9.56016 17.625 9.32812 17.625ZM16.0781 17.625H14.6719C14.4398 17.625 14.25 17.4352 14.25 17.2031V15.7969C14.25 15.5648 14.4398 15.375 14.6719 15.375H16.0781C16.3102 15.375 16.5 15.5648 16.5 15.7969V17.2031C16.5 17.4352 16.3102 17.625 16.0781 17.625Z" fill="#101419"/>
</svg>
