<svg width="24" height="24" viewBox="0 0 24 24" fill="none" xmlns="http://www.w3.org/2000/svg">
<path d="M19.0714 3H4.92857C3.86384 3 3 3.86384 3 4.92857V19.0714C3 20.1362 3.86384 21 4.92857 21H19.0714C20.1362 21 21 20.1362 21 19.0714V4.92857C21 3.86384 20.1362 3 19.0714 3ZM19.0714 4.28571C19.425 4.28571 19.7143 4.575 19.7143 4.92857V19.0714C19.7143 19.425 19.425 19.7143 19.0714 19.7143H4.92857C4.575 19.7143 4.28571 19.425 4.28571 19.0714V4.92857C4.28571 4.575 4.575 4.28571 4.92857 4.28571H19.0714Z" fill="#101419"/>
<path d="M17.6928 8.23561L17.3513 7.89409C17.1624 7.70525 16.8571 7.70525 16.6683 7.89007L10.1031 14.403L7.33075 11.6106C7.14191 11.4218 6.83656 11.4218 6.64772 11.6066L6.3062 11.9481C6.11736 12.1369 6.11736 12.4423 6.30218 12.6311L9.75352 16.1106C9.94236 16.2994 10.2477 16.2994 10.4366 16.1146L17.6888 8.92266C17.8776 8.7298 17.8816 8.42445 17.6928 8.23561Z" fill="#101419"/>
</svg>
