<svg width="24" height="24" viewBox="0 0 24 24" fill="none" xmlns="http://www.w3.org/2000/svg">
<path d="M12 1.96875C6.45854 1.96875 1.96875 6.45854 1.96875 12C1.96875 17.5415 6.45854 22.0312 12 22.0312C17.5415 22.0312 22.0312 17.5415 22.0312 12C22.0312 6.45854 17.5415 1.96875 12 1.96875ZM20.7369 12C20.7369 16.8012 16.8498 20.7369 12 20.7369C7.19875 20.7369 3.2631 16.8498 3.2631 12C3.2631 7.19875 7.15021 3.2631 12 3.2631C16.8012 3.2631 20.7369 7.15021 20.7369 12ZM14.7141 15.5716L11.4297 13.1851C11.3043 13.0921 11.2315 12.9465 11.2315 12.7928V6.3372C11.2315 6.07024 11.4499 5.85181 11.7169 5.85181H12.2831C12.5501 5.85181 12.7685 6.07024 12.7685 6.3372V12.2548L15.6201 14.3298C15.8386 14.4876 15.8831 14.791 15.7253 15.0094L15.3936 15.4664C15.2359 15.6808 14.9325 15.7294 14.7141 15.5716Z" fill="#101419"/>
</svg>
