<svg width="24" height="24" viewBox="0 0 24 24" fill="none" xmlns="http://www.w3.org/2000/svg">
<path d="M12.0469 1.875C6.47952 1.875 1.96875 6.38577 1.96875 11.9531C1.96875 17.5205 6.47952 22.0312 12.0469 22.0312C17.6142 22.0312 22.125 17.5205 22.125 11.9531C22.125 6.38577 17.6142 1.875 12.0469 1.875ZM12.0469 20.7308C7.22319 20.7308 3.26915 16.8256 3.26915 11.9531C3.26915 7.12944 7.17443 3.1754 12.0469 3.1754C16.8706 3.1754 20.8246 7.08068 20.8246 11.9531C20.8246 16.7768 16.9193 20.7308 12.0469 20.7308ZM15.8993 9.13694L13.0831 11.9531L15.8993 14.7693C16.0903 14.9603 16.0903 15.2692 15.8993 15.4601L15.5539 15.8056C15.3629 15.9966 15.0541 15.9966 14.8631 15.8056L12.0469 12.9894L9.23069 15.8056C9.03969 15.9966 8.73085 15.9966 8.53985 15.8056L8.19443 15.4601C8.00343 15.2692 8.00343 14.9603 8.19443 14.7693L11.0106 11.9531L8.19443 9.13694C8.00343 8.94594 8.00343 8.6371 8.19443 8.4461L8.53985 8.10068C8.73085 7.90968 9.03969 7.90968 9.23069 8.10068L12.0469 10.9169L14.8631 8.10068C15.0541 7.90968 15.3629 7.90968 15.5539 8.10068L15.8993 8.4461C16.0863 8.6371 16.0863 8.94594 15.8993 9.13694Z" fill="#101419"/>
</svg>
