<svg width="24" height="24" viewBox="0 0 24 24" fill="none" xmlns="http://www.w3.org/2000/svg">
<path d="M19.0714 3H4.92857C3.86384 3 3 3.86384 3 4.92857V19.0714C3 20.1362 3.86384 21 4.92857 21H19.0714C20.1362 21 21 20.1362 21 19.0714V4.92857C21 3.86384 20.1362 3 19.0714 3ZM19.7143 19.0714C19.7143 19.425 19.425 19.7143 19.0714 19.7143H4.92857C4.575 19.7143 4.28571 19.425 4.28571 19.0714V4.92857C4.28571 4.575 4.575 4.28571 4.92857 4.28571H19.0714C19.425 4.28571 19.7143 4.575 19.7143 4.92857V19.0714ZM15.8089 9.21562L13.0246 12L15.8089 14.7844C15.9978 14.9732 15.9978 15.2786 15.8089 15.4674L15.4674 15.8089C15.2786 15.9978 14.9732 15.9978 14.7844 15.8089L12 13.0246L9.21562 15.8089C9.02679 15.9978 8.72143 15.9978 8.53259 15.8089L8.19107 15.4674C8.00223 15.2786 8.00223 14.9732 8.19107 14.7844L10.9754 12L8.19107 9.21562C8.00223 9.02679 8.00223 8.72143 8.19107 8.53259L8.53259 8.19107C8.72143 8.00223 9.02679 8.00223 9.21562 8.19107L12 10.9754L14.7844 8.19107C14.9732 8.00223 15.2786 8.00223 15.4674 8.19107L15.8089 8.53259C15.9937 8.72143 15.9937 9.02679 15.8089 9.21562Z" fill="#101419"/>
</svg>
