<svg width="24" height="24" viewBox="0 0 24 24" fill="none" xmlns="http://www.w3.org/2000/svg">
<path d="M13.9095 12.0003L19.6786 6.2311L20.8684 5.04138C21.0439 4.86587 21.0439 4.58067 20.8684 4.40517L19.5954 3.13219C19.4199 2.95669 19.1347 2.95669 18.9592 3.13219L12.0003 10.0911L5.04138 3.13163C4.86587 2.95612 4.58067 2.95612 4.40517 3.13163L3.13163 4.40461C2.95612 4.58011 2.95612 4.86531 3.13163 5.04081L10.0911 12.0003L3.13163 18.9592C2.95612 19.1347 2.95612 19.4199 3.13163 19.5954L4.40461 20.8684C4.58011 21.0439 4.86531 21.0439 5.04081 20.8684L12.0003 13.9095L17.7695 19.6786L18.9592 20.8684C19.1347 21.0439 19.4199 21.0439 19.5954 20.8684L20.8684 19.5954C21.0439 19.4199 21.0439 19.1347 20.8684 18.9592L13.9095 12.0003Z" fill="#101419"/>
</svg>
