<svg width="24" height="24" viewBox="0 0 24 24" fill="none" xmlns="http://www.w3.org/2000/svg">
<path d="M18.75 3H5.25C4.00898 3 3 4.00898 3 5.25V15.375C3 16.616 4.00898 17.625 5.25 17.625H8.625V20.5781C8.625 20.8277 8.82891 21 9.04688 21C9.13125 21 9.21914 20.9754 9.29648 20.9156L13.6875 17.625H18.75C19.991 17.625 21 16.616 21 15.375V5.25C21 4.00898 19.991 3 18.75 3ZM19.875 15.375C19.875 15.9937 19.3687 16.5 18.75 16.5H13.3113L13.0125 16.725L9.75 19.1719V16.5H5.25C4.63125 16.5 4.125 15.9937 4.125 15.375V5.25C4.125 4.63125 4.63125 4.125 5.25 4.125H18.75C19.3687 4.125 19.875 4.63125 19.875 5.25V15.375ZM7.5 9.46875C7.03242 9.46875 6.65625 9.84492 6.65625 10.3125C6.65625 10.7801 7.03242 11.1562 7.5 11.1562C7.96758 11.1562 8.34375 10.7801 8.34375 10.3125C8.34375 9.84492 7.96758 9.46875 7.5 9.46875ZM12 9.46875C11.5324 9.46875 11.1562 9.84492 11.1562 10.3125C11.1562 10.7801 11.5324 11.1562 12 11.1562C12.4676 11.1562 12.8438 10.7801 12.8438 10.3125C12.8438 9.84492 12.4676 9.46875 12 9.46875ZM16.5 9.46875C16.0324 9.46875 15.6562 9.84492 15.6562 10.3125C15.6562 10.7801 16.0324 11.1562 16.5 11.1562C16.9676 11.1562 17.3438 10.7801 17.3438 10.3125C17.3438 9.84492 16.9676 9.46875 16.5 9.46875Z" fill="#101419"/>
</svg>
