<svg width="24" height="24" viewBox="0 0 24 24" fill="none" xmlns="http://www.w3.org/2000/svg">
<path d="M20.4606 10.9565C20.6539 10.1712 20.56 9.20286 20.1221 8.51644C20.2738 7.68084 20.0132 6.78053 19.4814 6.15728C19.5489 4.26218 18.3896 3 16.3055 3.00049C16.1873 2.99944 15.0572 3.00039 14.8637 3.00049C12.1615 2.99975 9.88771 4.40625 8.625 4.40625H8.24373C8.04545 4.23135 7.78522 4.125 7.5 4.125H4.125C3.50368 4.125 3 4.62868 3 5.25V14.25C3 14.8713 3.50368 15.375 4.125 15.375H7.5C8.12132 15.375 8.625 14.8713 8.625 14.25V13.8112C8.65488 13.8206 8.68311 13.8305 8.70874 13.8413C9.46875 14.25 10.7339 16.2627 11.5625 17.0913C11.9106 17.4394 12.0237 18.0209 12.1435 18.6365C12.344 19.6669 12.7353 21 13.7898 21C15.8854 21 16.7046 19.7811 16.7046 17.7277C16.7046 16.6411 16.2836 15.8837 15.977 15.2732H18.4432C19.8725 15.2732 21 14.0463 21 12.7218C21 12 20.8096 11.4091 20.4606 10.9565ZM7.5 14.25H4.125V5.25H7.5V14.25ZM18.4432 14.1481H14.5057C14.5057 15.5799 15.5796 16.2444 15.5796 17.7276C15.5796 18.6267 15.5796 19.8754 13.7898 19.8754C13.0739 19.1594 13.4318 17.3697 12.358 16.2958C11.3523 15.2901 9.85234 12.7163 8.77846 12.7163H8.625V5.55727H8.77846C9.99841 5.55727 12.358 4.12546 14.8637 4.12546C14.986 4.12546 16.179 4.1244 16.2955 4.12546C17.6402 4.1384 18.5984 4.77353 18.3068 6.62064C18.8822 6.92931 19.3101 7.99999 18.8347 8.80018C19.5938 9.1875 19.5938 10.875 19.0318 11.2845C19.5938 11.4375 19.8785 12.0004 19.875 12.7163C19.8715 13.4322 19.2423 14.1481 18.4432 14.1481ZM6.65625 12.5625C6.65625 13.0285 6.2785 13.4063 5.8125 13.4063C5.3465 13.4063 4.96875 13.0285 4.96875 12.5625C4.96875 12.0965 5.3465 11.7188 5.8125 11.7188C6.2785 11.7188 6.65625 12.0965 6.65625 12.5625Z" fill="#101419"/>
</svg>
