<svg width="24" height="24" viewBox="0 0 24 24" fill="none" xmlns="http://www.w3.org/2000/svg">
<path d="M11.582 12C14.3499 12 16.5932 9.75472 16.5932 6.98438C16.5932 4.21403 14.3499 1.96875 11.582 1.96875C8.81415 1.96875 6.57087 4.21403 6.57087 6.98438C6.57087 9.75472 8.81415 12 11.582 12ZM11.582 3.22266C13.653 3.22266 15.3404 4.91151 15.3404 6.98438C15.3404 9.05724 13.653 10.7461 11.582 10.7461C9.51101 10.7461 7.82366 9.05724 7.82366 6.98438C7.82366 4.91151 9.51101 3.22266 11.582 3.22266ZM15.2504 13.2578C13.9271 13.2186 13.516 13.8809 11.582 13.8809C9.65195 13.8809 9.24088 13.2186 7.91762 13.2578C5.08318 13.3401 2.8125 15.6638 2.8125 18.5203V21.7178C2.8125 21.8902 2.95344 22.0312 3.1257 22.0312H3.75209C3.92435 22.0312 4.06529 21.8902 4.06529 21.7178V18.5203C4.06529 16.3926 5.73307 14.6646 7.82366 14.5313V17.7327C6.9193 18.0031 6.25767 18.8416 6.25767 19.8369C6.25767 21.0477 7.24033 22.0312 8.45006 22.0312C9.65978 22.0312 10.6424 21.0477 10.6424 19.8369C10.6424 18.8416 9.98081 18.0031 9.07645 17.7327V14.7194C9.89076 14.9859 10.7286 15.1308 11.582 15.1308C12.4355 15.1308 13.2733 14.9859 14.0876 14.7194V17.4153C12.9836 17.7092 12.2084 18.7672 12.2084 19.9466V21.0908C12.2084 21.2554 12.275 21.4161 12.3924 21.5336L12.7957 21.9372C12.917 22.0587 13.1167 22.0587 13.2381 21.9372L13.6805 21.4944C13.8018 21.3729 13.8018 21.1731 13.6805 21.0516L13.4573 20.8283V19.8369C13.4573 19.0767 14.1385 18.4733 14.9215 18.5987C15.5361 18.7006 15.9629 19.2805 15.9629 19.9035V20.8283L15.7397 21.0516C15.6184 21.1731 15.6184 21.3729 15.7397 21.4944L16.1821 21.9372C16.3035 22.0587 16.5031 22.0587 16.6245 21.9372L17.0278 21.5336C17.1452 21.4161 17.2118 21.2554 17.2118 21.0908V19.8369C17.2118 18.6731 16.4092 17.7014 15.3326 17.4231V14.5352C17.4232 14.6685 19.0909 16.3965 19.0909 18.5242V21.7178C19.0909 21.8902 19.2319 22.0312 19.4041 22.0312H20.0305C20.2028 22.0312 20.3437 21.8902 20.3437 21.7178V18.5203C20.3516 15.6638 18.0809 13.3401 15.2504 13.2578ZM9.38965 19.8369C9.38965 20.3542 8.96683 20.7773 8.45006 20.7773C7.93328 20.7773 7.51046 20.3542 7.51046 19.8369C7.51046 19.3197 7.93328 18.8965 8.45006 18.8965C8.96683 18.8965 9.38965 19.3197 9.38965 19.8369Z" fill="#101419"/>
</svg>
