<svg width="24" height="24" viewBox="0 0 24 24" fill="none" xmlns="http://www.w3.org/2000/svg">
<path d="M18.9458 5.80809L15.6479 2.52114C15.2942 2.16855 14.8146 1.96875 14.3155 1.96875H6.29297C5.25134 1.97267 4.40625 2.81497 4.40625 3.85316V20.1508C4.40625 21.1889 5.25134 22.0312 6.29297 22.0312H17.6133C18.6549 22.0312 19.5 21.1889 19.5 20.1508V7.1401C19.5 6.64256 19.2995 6.16068 18.9458 5.80809ZM18.0574 6.6974C18.14 6.77968 18.195 6.87762 18.2225 6.98731H14.4688V3.24592C14.5788 3.27334 14.6771 3.32819 14.7596 3.41046L18.0574 6.6974ZM17.6133 20.7776H6.29297C5.94707 20.7776 5.66406 20.4955 5.66406 20.1508V3.85316C5.66406 3.5084 5.94707 3.22633 6.29297 3.22633H13.2109V7.30073C13.2109 7.82178 13.6315 8.24098 14.1543 8.24098H18.2422V20.1508C18.2422 20.4955 17.9592 20.7776 17.6133 20.7776ZM15.7266 11.2184V11.5318C15.7266 11.7904 15.5143 12.002 15.2549 12.002H8.65137C8.39194 12.002 8.17969 11.7904 8.17969 11.5318V11.2184C8.17969 10.9599 8.39194 10.7483 8.65137 10.7483H15.2549C15.5143 10.7483 15.7266 10.9599 15.7266 11.2184ZM15.7266 13.7257V14.0392C15.7266 14.2977 15.5143 14.5093 15.2549 14.5093H8.65137C8.39194 14.5093 8.17969 14.2977 8.17969 14.0392V13.7257C8.17969 13.4672 8.39194 13.2556 8.65137 13.2556H15.2549C15.5143 13.2556 15.7266 13.4672 15.7266 13.7257ZM15.7266 16.2331V16.5465C15.7266 16.8051 15.5143 17.0166 15.2549 17.0166H8.65137C8.39194 17.0166 8.17969 16.8051 8.17969 16.5465V16.2331C8.17969 15.9745 8.39194 15.7629 8.65137 15.7629H15.2549C15.5143 15.7629 15.7266 15.9745 15.7266 16.2331Z" fill="#101419"/>
</svg>
