<svg width="24" height="24" viewBox="0 0 24 24" fill="none" xmlns="http://www.w3.org/2000/svg">
<path d="M19.6802 18.8965C19.6802 19.3275 19.3275 19.6802 18.8965 19.6802C18.4655 19.6802 18.1128 19.3275 18.1128 18.8965C18.1128 18.4655 18.4655 18.1128 18.8965 18.1128C19.3275 18.1128 19.6802 18.4655 19.6802 18.8965ZM16.3887 18.1128C15.9576 18.1128 15.605 18.4655 15.605 18.8965C15.605 19.3275 15.9576 19.6802 16.3887 19.6802C16.8197 19.6802 17.1724 19.3275 17.1724 18.8965C17.1724 18.4655 16.8197 18.1128 16.3887 18.1128ZM22.0312 16.2319V20.3071C22.0312 21.2593 21.2593 22.0312 20.3071 22.0312H3.69287C2.74069 22.0312 1.96875 21.2593 1.96875 20.3071V16.2319C1.96875 15.2797 2.74069 14.5078 3.69287 14.5078H7.58782L5.37781 12.2978C4.39036 11.3104 5.09176 9.6215 6.48673 9.6215H8.55176V3.53613C8.55176 2.67015 9.25316 1.96875 10.1191 1.96875H13.8809C14.7468 1.96875 15.4482 2.67015 15.4482 3.53613V9.6215H17.5133C18.9082 9.6215 19.6057 11.3104 18.6222 12.2978L16.4122 14.5078H20.3071C21.2593 14.5078 22.0312 15.2797 22.0312 16.2319ZM11.7766 16.9255C11.8981 17.047 12.098 17.047 12.2194 16.9255L17.7327 11.4122C17.9286 11.2163 17.7915 10.8754 17.5094 10.8754H14.1943V3.53613C14.1943 3.36372 14.0533 3.22266 13.8809 3.22266H10.1191C9.94673 3.22266 9.80566 3.36372 9.80566 3.53613V10.8754H6.48673C6.20852 10.8754 6.06746 11.2124 6.26338 11.4122L11.7766 16.9255ZM20.7773 16.2319C20.7773 15.9733 20.5657 15.7617 20.3071 15.7617H15.1583L13.1089 17.8111C12.4976 18.4223 11.5024 18.4223 10.8911 17.8111L8.84172 15.7617H3.69287C3.43425 15.7617 3.22266 15.9733 3.22266 16.2319V20.3071C3.22266 20.5657 3.43425 20.7773 3.69287 20.7773H20.3071C20.5657 20.7773 20.7773 20.5657 20.7773 20.3071V16.2319Z" fill="#101419"/>
</svg>
