<svg width="24" height="24" viewBox="0 0 24 24" fill="none" xmlns="http://www.w3.org/2000/svg">
<path d="M21.7485 9.15904L14.7561 2.06593C14.6283 1.93636 14.4182 1.93636 14.2904 2.06593L13.8248 2.53825C13.6971 2.66782 13.6971 2.88099 13.8248 3.01056L14.5253 3.72113L3.22292 15.1821C1.67775 16.7496 1.67363 19.2867 3.22292 20.8541C4.76809 22.4215 7.2692 22.4257 8.81437 20.8541L20.1126 9.39311L20.8131 10.1037C20.9409 10.2333 21.151 10.2333 21.2787 10.1037L21.7443 9.63136C21.8762 9.50179 21.8762 9.2928 21.7485 9.15904ZM7.88727 19.9095C6.89012 20.921 5.15541 20.921 4.15826 19.9095C3.12815 18.8645 3.12815 17.1717 4.15826 16.1268L6.9066 13.3388H14.3646L7.88727 19.9095ZM15.6832 12.0013H8.22515L15.4524 4.66994L19.1814 8.45266L15.6832 12.0013Z" fill="#101419"/>
</svg>
