<svg width="24" height="24" viewBox="0 0 24 24" fill="none" xmlns="http://www.w3.org/2000/svg">
<path d="M21.9372 19.2248L2.68958 4.08606C2.63765 4.04461 2.57136 4.02545 2.50529 4.03279C2.43922 4.04012 2.37877 4.07337 2.33723 4.1252L2.02375 4.5169C1.98221 4.56873 1.96297 4.63491 1.97026 4.7009C1.97755 4.76689 2.01077 4.82729 2.06262 4.86883L21.3102 20.0075C21.336 20.0281 21.3655 20.0434 21.3971 20.0526C21.4288 20.0618 21.4619 20.0646 21.4947 20.061C21.5274 20.0573 21.5591 20.0473 21.588 20.0314C21.6169 20.0155 21.6423 19.9941 21.6629 19.9684L21.9764 19.5767C22.0179 19.5248 22.0371 19.4586 22.0297 19.3926C22.0224 19.3266 21.9891 19.2663 21.9372 19.2248ZM11.9999 7.03709C13.0637 7.03825 14.0837 7.46087 14.8359 8.21222C15.5882 8.96357 16.0113 9.98229 16.0124 11.0449C16.0124 11.7218 15.8275 12.3502 15.5297 12.91L16.3275 13.5362C16.7538 12.8011 17.0156 11.9573 17.0156 11.0449C17.0156 9.89169 16.6109 8.84341 15.9566 7.99739C17.7094 8.88121 19.1349 10.2995 20.0265 12.0468C19.4937 13.08 18.7733 14.0054 17.9021 14.7758L18.6958 15.4002C19.5883 14.5773 20.3532 13.6073 20.9193 12.5036C20.991 12.3619 21.0284 12.2054 21.0284 12.0466C21.0284 11.8879 20.991 11.7313 20.9193 11.5897C19.2193 8.27668 15.8538 6.03515 11.9999 6.03515C10.5919 6.03441 9.20034 6.33808 7.92092 6.92531L9.35571 8.0525C10.0639 7.4291 10.983 7.03709 11.9999 7.03709ZM13.9077 11.6344C14.006 11.3353 14.0313 11.0171 13.9816 10.7063C13.9319 10.3955 13.8087 10.101 13.6221 9.8473C13.4354 9.59364 13.1909 9.38813 12.9088 9.24789C12.6266 9.10764 12.315 9.03671 11.9999 9.04098C11.9686 9.04098 11.9407 9.04849 11.9106 9.05006C12.0322 9.37551 12.0296 9.73434 11.903 10.0579L13.9077 11.6344ZM7.08581 10.0952C7.02063 10.4076 6.98661 10.7257 6.98424 11.0449C6.98102 11.8842 7.18981 12.7108 7.59127 13.4482C7.99274 14.1856 8.57393 14.8099 9.28105 15.2634C9.98818 15.7169 10.7984 15.985 11.6368 16.0427C12.4751 16.1005 13.3145 15.9462 14.0773 15.594L13.1501 14.8648C12.7833 14.9753 12.4024 15.0526 12.0002 15.0526C10.9364 15.0515 9.9164 14.6289 9.1641 13.8775C8.41181 13.1262 7.98862 12.1075 7.98737 11.0449C7.98737 10.9685 8.00587 10.8971 8.00995 10.8219L7.08581 10.0952ZM11.9999 17.0565C8.63439 17.0565 5.55885 15.1368 3.97484 12.0468C4.52124 10.9822 5.26293 10.083 6.11622 9.33154L5.30556 8.69374C4.41277 9.51658 3.6482 10.4863 3.08206 11.59C3.01035 11.7317 2.97298 11.8882 2.97298 12.047C2.97298 12.2057 3.01035 12.3623 3.08206 12.5039C4.7808 15.8169 8.14631 18.0584 11.9999 18.0584C13.4079 18.0592 14.7995 17.7555 16.0789 17.1683L15.162 16.4481C14.1648 16.8323 13.1018 17.0565 11.9999 17.0565Z" fill="black"/>
</svg>
