<svg width="24" height="24" viewBox="0 0 24 24" fill="none" xmlns="http://www.w3.org/2000/svg">
<path d="M12 13.0391C12.5304 13.0391 13.0391 12.83 13.4142 12.4579C13.7893 12.0857 14 11.581 14 11.0547C14 10.5284 13.7893 10.0237 13.4142 9.65152C13.0391 9.27938 12.5304 9.07031 12 9.07031C11.9688 9.07031 11.9412 9.07775 11.9109 9.0793C12.0073 9.34264 12.026 9.62779 11.9648 9.90129C11.9035 10.1748 11.765 10.4253 11.5653 10.6234C11.3656 10.8215 11.1132 10.959 10.8375 11.0197C10.5619 11.0805 10.2745 11.0619 10.0091 10.9663C10.0091 10.9973 10 11.0246 10 11.0547C10 11.3153 10.0517 11.5733 10.1522 11.8141C10.2527 12.0548 10.4001 12.2736 10.5858 12.4579C10.9609 12.83 11.4696 13.0391 12 13.0391ZM20.8913 11.5942C19.1966 8.31346 15.8416 6.09375 12 6.09375C8.15843 6.09375 4.80249 8.31501 3.10873 11.5945C3.03725 11.7348 3 11.8898 3 12.047C3 12.2042 3.03725 12.3593 3.10873 12.4996C4.80342 15.7803 8.15843 18 12 18C15.8416 18 19.1975 15.7787 20.8913 12.4993C20.9628 12.3589 21 12.2039 21 12.0467C21 11.8895 20.9628 11.7345 20.8913 11.5942ZM12 7.08594C12.7911 7.08594 13.5645 7.3187 14.2223 7.75479C14.8801 8.19088 15.3928 8.81072 15.6955 9.53591C15.9983 10.2611 16.0775 11.0591 15.9231 11.829C15.7688 12.5988 15.3878 13.306 14.8284 13.861C14.269 14.4161 13.5563 14.794 12.7804 14.9472C12.0044 15.1003 11.2002 15.0217 10.4693 14.7213C9.73836 14.4209 9.11364 13.9123 8.67412 13.2596C8.23459 12.6069 7.99999 11.8396 7.99999 11.0547C8.00115 10.0025 8.42295 8.99366 9.17285 8.24963C9.92274 7.50559 10.9395 7.08709 12 7.08594ZM12 17.0078C8.64499 17.0078 5.57936 15.1068 3.99998 12.0469C4.88825 10.3167 6.30876 8.91219 8.05562 8.03689C7.40343 8.87467 6.99999 9.91274 6.99999 11.0547C6.99999 12.3704 7.52678 13.6322 8.46446 14.5626C9.40214 15.493 10.6739 16.0156 12 16.0156C13.3261 16.0156 14.5979 15.493 15.5355 14.5626C16.4732 13.6322 17 12.3704 17 11.0547C17 9.91274 16.5966 8.87467 15.9444 8.03689C17.6912 8.91219 19.1118 10.3167 20 12.0469C18.4209 15.1068 15.355 17.0078 12 17.0078Z" fill="black"/>
</svg>
