<svg width="24" height="24" viewBox="0 0 24 24" fill="none" xmlns="http://www.w3.org/2000/svg">
<path d="M18.7755 5.80809L15.5801 2.52114C15.2373 2.16855 14.7727 1.96875 14.289 1.96875H6.51562C5.50635 1.97267 4.6875 2.81497 4.6875 3.85316V20.1508C4.6875 21.1889 5.50635 22.0312 6.51562 22.0312H17.4844C18.4937 22.0312 19.3125 21.1889 19.3125 20.1508V7.1401C19.3125 6.64256 19.1183 6.16068 18.7755 5.80809ZM17.9147 6.6974C17.9947 6.77968 18.048 6.87762 18.0747 6.98731H14.4375V3.24592C14.5441 3.27334 14.6394 3.32819 14.7193 3.41046L17.9147 6.6974ZM17.4844 20.7776H6.51562C6.18047 20.7776 5.90625 20.4955 5.90625 20.1508V3.85316C5.90625 3.5084 6.18047 3.22633 6.51562 3.22633H13.2188V7.30073C13.2188 7.82178 13.6263 8.24098 14.1328 8.24098H18.0938V20.1508C18.0938 20.4955 17.8195 20.7776 17.4844 20.7776ZM16.6465 14.0705C16.1323 13.5494 14.5518 13.7101 13.8396 13.808C13.0321 13.3066 12.4989 12.617 12.1219 11.5906C12.2856 10.8854 12.5789 9.74145 12.3656 9.04802C12.198 7.94715 10.8536 8.08035 10.667 8.78162C10.4766 9.49855 10.6556 10.5211 10.9869 11.8296C10.5337 12.9422 9.85576 14.4505 9.3835 15.3007C8.59131 15.7199 7.32305 16.4485 7.14404 17.3535C7.01074 18.0117 8.01621 18.8971 9.16641 17.6043C9.51299 17.2164 9.90146 16.6327 10.3585 15.8217C11.3754 15.477 12.4951 15.046 13.4815 14.8815C14.3156 15.3516 15.2944 15.6611 15.9419 15.6611C16.9969 15.665 17.0426 14.4779 16.6465 14.0705ZM7.91719 17.5572C8.14189 16.9343 9.00645 16.2096 9.26924 15.9588C8.42754 17.3418 7.91719 17.5847 7.91719 17.5572ZM11.543 8.84822C11.8743 8.84822 11.84 10.3174 11.6229 10.713C11.4249 10.0745 11.4325 8.84822 11.543 8.84822ZM10.4613 15.0891C10.8917 14.3134 11.2611 13.3967 11.5582 12.5935C11.9276 13.287 12.3999 13.8354 12.895 14.2194C11.9695 14.4035 11.1659 14.8109 10.4613 15.0891ZM16.3037 14.858C16.3037 14.858 16.0828 15.1322 14.647 14.5014C16.2085 14.3839 16.4637 14.7522 16.3037 14.858Z" fill="#101419"/>
</svg>
