<svg width="24" height="24" viewBox="0 0 24 24" fill="none" xmlns="http://www.w3.org/2000/svg">
<path d="M12.206 16.2057L11.6622 14.5748C11.5336 14.1904 11.1747 13.9318 10.7695 13.9318C10.3644 13.9318 10.0054 14.19 9.87691 14.5748L9.16296 16.7163C9.10419 16.8957 8.93648 17.0156 8.748 17.0156H8.26172C7.91533 17.0156 7.63477 17.2962 7.63477 17.6426C7.63477 17.989 7.91533 18.2695 8.26172 18.2695H8.748C9.47762 18.2695 10.123 17.804 10.3534 17.1124L10.7695 15.8628L11.4282 17.8409C11.4675 17.9585 11.5408 18.0619 11.6389 18.1378C11.737 18.2138 11.8554 18.259 11.9792 18.2676C11.994 18.2687 12.0085 18.2695 12.023 18.2695C12.2593 18.2695 12.4772 18.1359 12.5838 17.9224L12.8839 17.3217C12.9929 17.1026 13.1951 17.0791 13.277 17.0791C13.3588 17.0791 13.561 17.1022 13.6762 17.335C13.9654 17.911 14.5457 18.2691 15.1896 18.2691H15.7852C16.1315 18.2691 16.4121 17.9886 16.4121 17.6422C16.4121 17.2958 16.1315 17.0152 15.7852 17.0152H15.1899C15.0222 17.0152 14.8718 16.922 14.7918 16.7605C14.3232 15.826 12.9799 15.5721 12.206 16.2057ZM7.32129 5.73047H11.71C11.8832 5.73047 12.0234 5.59019 12.0234 5.41699V4.79004C12.0234 4.61684 11.8832 4.47656 11.71 4.47656H7.32129C7.14809 4.47656 7.00781 4.61684 7.00781 4.79004V5.41699C7.00781 5.59019 7.14809 5.73047 7.32129 5.73047ZM12.0234 7.9248V7.29785C12.0234 7.12466 11.8832 6.98438 11.71 6.98438H7.32129C7.14809 6.98438 7.00781 7.12466 7.00781 7.29785V7.9248C7.00781 8.098 7.14809 8.23828 7.32129 8.23828H11.71C11.8832 8.23828 12.0234 8.098 12.0234 7.9248ZM18.9944 5.80805L15.7076 2.52125C15.3549 2.16859 14.8769 1.96875 14.3796 1.96875H6.38047C5.34247 1.97267 4.5 2.81514 4.5 3.85314V20.1508C4.5 21.1888 5.34247 22.0312 6.38047 22.0312H17.6664C18.7044 22.0312 19.5469 21.1888 19.5469 20.1508V7.13994C19.5469 6.64269 19.347 6.16072 18.9944 5.80805ZM14.5324 3.24578C14.6421 3.2732 14.7401 3.32806 14.8224 3.41035L18.1092 6.69715C18.1915 6.77944 18.2463 6.8774 18.2738 6.98712H14.5324V3.24578ZM18.2934 20.1508C18.2934 20.4956 18.0112 20.7777 17.6664 20.7777H6.38047C6.03564 20.7777 5.75351 20.4956 5.75351 20.1508V3.85314C5.75351 3.50831 6.03564 3.22266 6.38047 3.22266H13.2785V7.30059C13.2785 7.82175 13.6978 8.23828 14.2189 8.23828H18.2934V20.1508Z" fill="#101419"/>
</svg>
