<svg width="24" height="24" viewBox="0 0 24 24" fill="none" xmlns="http://www.w3.org/2000/svg">
<path d="M18.9915 5.80809L15.7046 2.52114C15.352 2.16855 14.874 1.96875 14.3765 1.96875H6.38049C5.3423 1.97267 4.5 2.81497 4.5 3.85316V20.1508C4.5 21.1889 5.3423 22.0312 6.38049 22.0312H17.6634C18.7016 22.0312 19.5439 21.1889 19.5439 20.1508V7.1401C19.5439 6.64256 19.3441 6.16068 18.9915 5.80809ZM18.1061 6.6974C18.1884 6.77968 18.2433 6.87762 18.2707 6.98731H14.5293V3.24592C14.639 3.27334 14.7369 3.32819 14.8192 3.41046L18.1061 6.6974ZM17.6634 20.7776H6.38049C6.03574 20.7776 5.75366 20.4955 5.75366 20.1508V3.85316C5.75366 3.5084 6.03574 3.22633 6.38049 3.22633H13.2756V7.30073C13.2756 7.82178 13.6948 8.24098 14.2159 8.24098H18.2903V20.1508C18.2903 20.4955 18.0082 20.7776 17.6634 20.7776ZM12.7938 14.0392L14.7722 10.8345C14.9602 10.5211 14.7369 10.1215 14.3687 10.1215H14.208C14.0474 10.1215 13.8985 10.2037 13.8124 10.3369C12.5979 12.237 12.3863 12.4329 12.022 13.2556C11.3481 11.9941 11.6929 12.6288 10.2277 10.3369C10.1415 10.2037 9.9926 10.1215 9.83198 10.1215H9.67135C9.30309 10.1215 9.07978 10.525 9.27175 10.8345L11.2776 14.0392L8.96225 17.5455C8.76245 17.8589 8.98576 18.2703 9.35794 18.2703H9.49506C9.65568 18.2703 9.80456 18.188 9.89074 18.0548C11.3481 15.7825 11.6655 15.6062 12.022 14.8227C13.256 17.044 13.7575 17.4554 14.1532 18.0587C14.2394 18.1919 14.3883 18.2703 14.545 18.2703H14.686C15.0582 18.2703 15.2815 17.8628 15.0817 17.5494L12.7938 14.0392Z" fill="#101419"/>
</svg>
