<svg width="24" height="24" viewBox="0 0 24 24" fill="none" xmlns="http://www.w3.org/2000/svg">
<path d="M21.7178 16.9821H9.49219V15.4252C9.49219 14.9075 9.07291 14.4911 8.55176 14.4911H6.6709C6.14974 14.4911 5.73047 14.9075 5.73047 15.4252V16.9821H2.28223C2.10981 16.9821 1.96875 17.1223 1.96875 17.2935V17.9163C1.96875 18.0876 2.10981 18.2277 2.28223 18.2277H5.73047V19.7846C5.73047 20.3023 6.14974 20.7188 6.6709 20.7188H8.55176C9.07291 20.7188 9.49219 20.3023 9.49219 19.7846V18.2277H21.7178C21.8902 18.2277 22.0312 18.0876 22.0312 17.9163V17.2935C22.0312 17.1223 21.8902 16.9821 21.7178 16.9821ZM8.23828 19.4732H6.98438V15.7366H8.23828V19.4732ZM21.7178 5.77232H12V4.2154C12 3.69773 11.5807 3.28125 11.0596 3.28125H9.17871C8.65756 3.28125 8.23828 3.69773 8.23828 4.2154V5.77232H2.28223C2.10981 5.77232 1.96875 5.91244 1.96875 6.08371V6.70647C1.96875 6.87773 2.10981 7.01786 2.28223 7.01786H8.23828V8.57478C8.23828 9.09245 8.65756 9.50893 9.17871 9.50893H11.0596C11.5807 9.50893 12 9.09245 12 8.57478V7.01786H21.7178C21.8902 7.01786 22.0312 6.87773 22.0312 6.70647V6.08371C22.0312 5.91244 21.8902 5.77232 21.7178 5.77232ZM10.7461 8.26339H9.49219V4.52679H10.7461V8.26339ZM21.7178 11.3772H18.2695V9.82031C18.2695 9.30264 17.8503 8.88616 17.3291 8.88616H15.4482C14.9271 8.88616 14.5078 9.30264 14.5078 9.82031V11.3772H2.28223C2.10981 11.3772 1.96875 11.5174 1.96875 11.6886V12.3114C1.96875 12.4826 2.10981 12.6228 2.28223 12.6228H14.5078V14.1797C14.5078 14.6974 14.9271 15.1138 15.4482 15.1138H17.3291C17.8503 15.1138 18.2695 14.6974 18.2695 14.1797V12.6228H21.7178C21.8902 12.6228 22.0312 12.4826 22.0312 12.3114V11.6886C22.0312 11.5174 21.8902 11.3772 21.7178 11.3772ZM17.0156 13.8683H15.7617V10.1317H17.0156V13.8683Z" fill="#101419"/>
</svg>
