<svg width="24" height="24" viewBox="0 0 24 24" fill="none" xmlns="http://www.w3.org/2000/svg">
<path d="M21.673 9.09375H2.32701C2.12997 9.09375 1.96875 9.25723 1.96875 9.45703V10.1836C1.96875 10.3834 2.12997 10.5469 2.32701 10.5469H21.673C21.87 10.5469 22.0312 10.3834 22.0312 10.1836V9.45703C22.0312 9.25723 21.87 9.09375 21.673 9.09375ZM21.673 13.4531H2.32701C2.12997 13.4531 1.96875 13.6166 1.96875 13.8164V14.543C1.96875 14.7428 2.12997 14.9062 2.32701 14.9062H21.673C21.87 14.9062 22.0312 14.7428 22.0312 14.543V13.8164C22.0312 13.6166 21.87 13.4531 21.673 13.4531Z" fill="#101419"/>
</svg>
