<svg width="24" height="24" viewBox="0 0 24 24" fill="none" xmlns="http://www.w3.org/2000/svg">
<path d="M2.45413 2.61594H2.85862C3.12667 2.61594 3.344 2.83327 3.344 3.10132V6.92877C5.09122 3.95264 8.32884 1.95723 12.0321 1.9688C17.5487 1.98607 22.0399 6.49936 22.0312 12.016C22.0226 17.5488 17.5347 22.0312 12 22.0312C9.41428 22.0312 7.0571 21.0529 5.27833 19.4463C5.07152 19.2595 5.06177 18.9382 5.25884 18.7411L5.54477 18.4552C5.72691 18.2731 6.02 18.2645 6.21144 18.4368C7.74408 19.8162 9.77269 20.656 12 20.656C16.7626 20.656 20.656 16.8 20.656 12C20.656 7.23743 16.8 3.34401 12 3.34401C8.64834 3.34401 5.7411 5.24821 4.30308 8.03605H8.27873C8.54678 8.03605 8.76411 8.25338 8.76411 8.52143V8.92591C8.76411 9.19397 8.54678 9.4113 8.27873 9.4113H2.45413C2.18608 9.4113 1.96875 9.19397 1.96875 8.92591V3.10132C1.96875 2.83327 2.18608 2.61594 2.45413 2.61594ZM15.4643 15.3667L15.6546 15.105C15.8123 14.8882 15.7644 14.5847 15.5476 14.427L12.6472 12.3176V6.3372C12.6472 6.06915 12.4298 5.85182 12.1618 5.85182H11.8382C11.5701 5.85182 11.3528 6.06915 11.3528 6.3372V12.9767L14.7863 15.4738C15.0031 15.6315 15.3066 15.5835 15.4643 15.3667Z" fill="#101419"/>
</svg>
