<svg width="24" height="24" viewBox="0 0 24 24" fill="none" xmlns="http://www.w3.org/2000/svg">
<path d="M21.8208 10.9434L12.7382 3.46792C12.5152 3.28646 12.2373 3.1875 11.9507 3.1875C11.6641 3.1875 11.3862 3.28646 11.1632 3.46792L2.08367 10.9434C2.01962 10.996 1.97888 11.0721 1.9704 11.155C1.96192 11.2379 1.98638 11.3209 2.03842 11.3856L2.43238 11.8739C2.48437 11.9382 2.55945 11.9792 2.64126 11.9879C2.72308 11.9967 2.80502 11.9725 2.86925 11.9207L4.46305 10.6074V20.168C4.46305 20.335 4.5288 20.4951 4.64584 20.6132C4.76288 20.7312 4.92163 20.7975 5.08715 20.7975H10.0799C10.2455 20.7975 10.4042 20.7312 10.5213 20.6132C10.6383 20.4951 10.7041 20.335 10.7041 20.168V15.132L13.2005 15.1438V20.183C13.2005 20.3499 13.2662 20.5101 13.3832 20.6281C13.5003 20.7462 13.659 20.8125 13.8246 20.8125L18.8174 20.7995C18.9829 20.7995 19.1416 20.7332 19.2587 20.6151C19.3757 20.4971 19.4415 20.337 19.4415 20.17V10.6074L21.0352 11.9207C21.0995 11.9733 21.1817 11.998 21.264 11.9895C21.3463 11.9809 21.4219 11.9398 21.4741 11.875L21.868 11.3868C21.8939 11.3546 21.9132 11.3175 21.9248 11.2778C21.9364 11.238 21.9401 11.1964 21.9357 11.1552C21.9313 11.114 21.9189 11.0741 21.8992 11.0377C21.8795 11.0014 21.8529 10.9693 21.8208 10.9434ZM18.189 19.5436H18.1929L14.4483 19.5554V14.5127C14.4477 14.3462 14.3821 14.1867 14.2656 14.0688C14.1491 13.9509 13.9911 13.8842 13.8261 13.8832L10.0815 13.8725C9.99939 13.8723 9.91802 13.8884 9.84208 13.9199C9.76613 13.9514 9.6971 13.9977 9.63894 14.0562C9.58078 14.1147 9.53464 14.1842 9.50315 14.2607C9.47167 14.3372 9.45546 14.4192 9.45546 14.5021V19.5436H5.71125V9.58007L11.9523 4.44288L18.1933 9.58007L18.189 19.5436Z" fill="#101419"/>
</svg>
