<svg width="24" height="24" viewBox="0 0 24 24" fill="none" xmlns="http://www.w3.org/2000/svg">
<path d="M10.269 15.7617H8.69531C8.4346 15.7617 8.22321 15.5512 8.22321 15.2915V13.7241C8.22321 13.4644 8.4346 13.2539 8.69531 13.2539H10.269C10.5297 13.2539 10.7411 13.4644 10.7411 13.7241V15.2915C10.7411 15.5512 10.5297 15.7617 10.269 15.7617ZM13.731 15.7617H15.3047C15.5654 15.7617 15.7768 15.5512 15.7768 15.2915V13.7241C15.7768 13.4644 15.5654 13.2539 15.3047 13.2539H13.731C13.4703 13.2539 13.2589 13.4644 13.2589 13.7241V15.2915C13.2589 15.5512 13.4703 15.7617 13.731 15.7617ZM8.69531 12H10.269C10.5297 12 10.7411 11.7895 10.7411 11.5298V9.9624C10.7411 9.70273 10.5297 9.49219 10.269 9.49219H8.69531C8.4346 9.49219 8.22321 9.70273 8.22321 9.9624V11.5298C8.22321 11.7895 8.4346 12 8.69531 12ZM13.731 12H15.3047C15.5654 12 15.7768 11.7895 15.7768 11.5298V9.9624C15.7768 9.70273 15.5654 9.49219 15.3047 9.49219H13.731C13.4703 9.49219 13.2589 9.70273 13.2589 9.9624V11.5298C13.2589 11.7895 13.4703 12 13.731 12ZM20.8125 22.0312H3.1875V21.2476C3.1875 20.9879 3.39888 20.7773 3.6596 20.7773H4.44643V5.29944C4.44643 4.84498 4.86915 4.47656 5.39062 4.47656H8.85268V2.90918C8.85268 2.38979 9.2754 1.96875 9.79688 1.96875H14.2031C14.7246 1.96875 15.1473 2.38979 15.1473 2.90918V4.47656H18.6094C19.1308 4.47656 19.5536 4.84498 19.5536 5.29944V20.7773H20.3404C20.6011 20.7773 20.8125 20.9879 20.8125 21.2476V22.0312ZM5.70536 20.7773H10.7411V17.4858C10.7411 17.2262 10.9525 17.0156 11.2132 17.0156H12.7868C13.0475 17.0156 13.2589 17.2262 13.2589 17.4858V20.7773H18.2946V5.73047H15.1473V7.29785C15.1473 7.81724 14.7246 8.23828 14.2031 8.23828H9.79688C9.2754 8.23828 8.85268 7.81724 8.85268 7.29785V5.73047H5.70536V20.7773ZM13.6523 4.47656H12.6295V3.45776C12.6295 3.39541 12.6046 3.33561 12.5603 3.29152C12.5161 3.24743 12.456 3.22266 12.3934 3.22266H11.6066C11.544 3.22266 11.4839 3.24743 11.4397 3.29152C11.3954 3.33561 11.3705 3.39541 11.3705 3.45776V4.47656H10.3477C10.2851 4.47656 10.225 4.50133 10.1807 4.54542C10.1365 4.58952 10.1116 4.64932 10.1116 4.71167V5.49536C10.1116 5.55772 10.1365 5.61752 10.1807 5.66161C10.225 5.7057 10.2851 5.73047 10.3477 5.73047H11.3705V6.74927C11.3705 6.81162 11.3954 6.87142 11.4397 6.91551C11.4839 6.9596 11.544 6.98438 11.6066 6.98438H12.3934C12.456 6.98438 12.5161 6.9596 12.5603 6.91551C12.6046 6.87142 12.6295 6.81162 12.6295 6.74927V5.73047H13.6523C13.7149 5.73047 13.775 5.7057 13.8193 5.66161C13.8635 5.61752 13.8884 5.55772 13.8884 5.49536V4.71167C13.8884 4.64932 13.8635 4.58952 13.8193 4.54542C13.775 4.50133 13.7149 4.47656 13.6523 4.47656Z" fill="#101419"/>
</svg>
