<svg width="24" height="24" viewBox="0 0 24 24" fill="none" xmlns="http://www.w3.org/2000/svg">
<path d="M12 1.96875C6.45854 1.96875 1.96875 6.46259 1.96875 12C1.96875 17.5415 6.45854 22.0312 12 22.0312C17.5415 22.0312 22.0312 17.5415 22.0312 12C22.0312 6.46259 17.5415 1.96875 12 1.96875ZM12 6.1754C12.7159 6.1754 13.2944 6.75382 13.2944 7.46976C13.2944 8.1857 12.7159 8.76411 12 8.76411C11.2841 8.76411 10.7056 8.1857 10.7056 7.46976C10.7056 6.75382 11.2841 6.1754 12 6.1754ZM13.9415 16.692C13.9415 16.959 13.7231 17.1774 13.4561 17.1774H10.5439C10.2769 17.1774 10.0585 16.959 10.0585 16.692V16.3684C10.0585 16.1015 10.2769 15.8831 10.5439 15.8831H11.0292V11.0292H10.5439C10.2769 11.0292 10.0585 10.8108 10.0585 10.5439V10.2203C10.0585 9.9533 10.2769 9.73488 10.5439 9.73488H12.4854C12.7523 9.73488 12.9708 9.9533 12.9708 10.2203V15.8831H13.4561C13.7231 15.8831 13.9415 16.1015 13.9415 16.3684V16.692Z" fill="#101419"/>
</svg>
