<svg width="24" height="24" viewBox="0 0 24 24" fill="none" xmlns="http://www.w3.org/2000/svg">
<path d="M12 3.2631C16.7981 3.2631 20.7369 7.1492 20.7369 12C20.7369 16.8252 16.8292 20.7369 12 20.7369C7.17675 20.7369 3.2631 16.8311 3.2631 12C3.2631 7.17841 7.17052 3.2631 12 3.2631ZM12 1.96875C6.46028 1.96875 1.96875 6.4619 1.96875 12C1.96875 17.5413 6.46028 22.0312 12 22.0312C17.5397 22.0312 22.0312 17.5413 22.0312 12C22.0312 6.4619 17.5397 1.96875 12 1.96875ZM10.5439 15.8831H11.0292V11.0292H10.5439C10.2758 11.0292 10.0585 10.8119 10.0585 10.5439V10.2203C10.0585 9.95221 10.2758 9.73488 10.5439 9.73488H12.4854C12.7534 9.73488 12.9708 9.95221 12.9708 10.2203V15.8831H13.4561C13.7242 15.8831 13.9415 16.1004 13.9415 16.3684V16.692C13.9415 16.9601 13.7242 17.1774 13.4561 17.1774H10.5439C10.2758 17.1774 10.0585 16.9601 10.0585 16.692V16.3684C10.0585 16.1004 10.2758 15.8831 10.5439 15.8831ZM12 6.1754C11.2852 6.1754 10.7056 6.75491 10.7056 7.46976C10.7056 8.18461 11.2852 8.76411 12 8.76411C12.7148 8.76411 13.2944 8.18461 13.2944 7.46976C13.2944 6.75491 12.7148 6.1754 12 6.1754Z" fill="#101419"/>
</svg>
