<svg width="24" height="24" viewBox="0 0 24 24" fill="none" xmlns="http://www.w3.org/2000/svg">
<path d="M19.0714 3H4.92857C3.86344 3 3 3.86344 3 4.92857V19.0714C3 20.1366 3.86344 21 4.92857 21H19.0714C20.1366 21 21 20.1366 21 19.0714V4.92857C21 3.86344 20.1366 3 19.0714 3ZM19.7143 19.0714C19.7143 19.4259 19.4259 19.7143 19.0714 19.7143H4.92857C4.57412 19.7143 4.28571 19.4259 4.28571 19.0714V4.92857C4.28571 4.57412 4.57412 4.28571 4.92857 4.28571H19.0714C19.4259 4.28571 19.7143 4.57412 19.7143 4.92857V19.0714ZM10.5536 15.8571H11.0357V11.0357H10.5536C10.2873 11.0357 10.0714 10.8198 10.0714 10.5536V10.2321C10.0714 9.96588 10.2873 9.75 10.5536 9.75H12.4821C12.7484 9.75 12.9643 9.96588 12.9643 10.2321V15.8571H13.4464C13.7127 15.8571 13.9286 16.073 13.9286 16.3393V16.6607C13.9286 16.927 13.7127 17.1429 13.4464 17.1429H10.5536C10.2873 17.1429 10.0714 16.927 10.0714 16.6607V16.3393C10.0714 16.073 10.2873 15.8571 10.5536 15.8571ZM12 6.21429C11.2899 6.21429 10.7143 6.78992 10.7143 7.5C10.7143 8.21008 11.2899 8.78571 12 8.78571C12.7101 8.78571 13.2857 8.21008 13.2857 7.5C13.2857 6.78992 12.7101 6.21429 12 6.21429Z" fill="#101419"/>
</svg>
