<svg width="24" height="24" viewBox="0 0 24 24" fill="none" xmlns="http://www.w3.org/2000/svg">
<path d="M20.4606 13.0435C20.8096 12.5909 21 12 21 11.2782C21 9.9537 19.8724 8.72685 18.4432 8.72685H15.977C16.2835 8.11625 16.7045 7.35888 16.7045 6.27234C16.7046 4.21894 15.8854 3 13.7898 3C12.7353 3 12.344 4.33305 12.1435 5.36348C12.0237 5.97911 11.9105 6.56063 11.5625 6.90864C10.7339 7.7373 9.46875 9.75 8.70874 10.1587C8.63179 10.1911 8.53345 10.2166 8.42637 10.2368C8.22341 9.9428 7.88429 9.75 7.5 9.75H4.125C3.50368 9.75 3 10.2537 3 10.875V19.875C3 20.4963 3.50368 21 4.125 21H7.5C8.12132 21 8.625 20.4963 8.625 19.875V19.5677C9.7674 19.5677 12.1648 21.0002 14.8637 20.9995C15.0572 20.9996 16.1873 21.0006 16.3055 20.9995C18.3896 21 19.5489 19.7379 19.4814 17.8427C20.0132 17.2195 20.2737 16.3192 20.1221 15.4836C20.56 14.7971 20.6539 13.8288 20.4606 13.0435ZM4.125 19.875V10.875H7.5V19.875H4.125ZM19.0318 12.7155C19.5938 13.125 19.5938 14.8125 18.8347 15.1998C19.3101 16 18.8823 17.0707 18.3069 17.3794C18.5984 19.2265 17.6403 19.8616 16.2955 19.8745C16.1791 19.8756 14.986 19.8745 14.8637 19.8745C12.2998 19.8745 10.1267 18.4427 8.62504 18.4427V11.2837C9.95071 11.2837 11.167 8.89521 12.358 7.70415C13.4319 6.6303 13.0739 4.84054 13.7898 4.12465C15.5796 4.12465 15.5796 5.37329 15.5796 6.27238C15.5796 7.75559 14.5058 8.42007 14.5058 9.85188H18.4432C19.2423 9.85188 19.8715 10.5678 19.875 11.2837C19.8785 11.9996 19.5938 12.5625 19.0318 12.7155ZM6.65625 18.1875C6.65625 18.6535 6.2785 19.0312 5.8125 19.0312C5.3465 19.0312 4.96875 18.6535 4.96875 18.1875C4.96875 17.7215 5.3465 17.3438 5.8125 17.3438C6.2785 17.3438 6.65625 17.7215 6.65625 18.1875Z" fill="#101419"/>
</svg>
