<svg width="24" height="24" viewBox="0 0 24 24" fill="none" xmlns="http://www.w3.org/2000/svg">
<path d="M12.2812 5.73047C10.2135 5.73047 8.53125 7.41795 8.53125 9.49219C8.53125 11.5664 10.2135 13.2539 12.2812 13.2539C14.349 13.2539 16.0312 11.5664 16.0312 9.49219C16.0312 7.41795 14.349 5.73047 12.2812 5.73047ZM12.2812 12C10.9027 12 9.78125 10.875 9.78125 9.49219C9.78125 8.10937 10.9027 6.98438 12.2812 6.98438C13.6598 6.98438 14.7812 8.10937 14.7812 9.49219C14.7812 10.875 13.6598 12 12.2812 12ZM12.2812 1.96875C8.1391 1.96875 4.78125 5.3371 4.78125 9.49219C4.78125 12.5256 5.83477 13.3727 11.5105 21.6265C11.8829 22.1661 12.6796 22.1662 13.0521 21.6265C18.7277 13.3727 19.7812 12.5256 19.7812 9.49219C19.7812 5.3371 16.4234 1.96875 12.2812 1.96875ZM12.2812 20.5395C6.84004 12.6461 6.03125 12.0194 6.03125 9.49219C6.03125 7.81752 6.68137 6.24312 7.86184 5.05896C9.0423 3.87481 10.6118 3.22266 12.2812 3.22266C13.9507 3.22266 15.5202 3.87481 16.7007 5.05896C17.8811 6.24312 18.5312 7.81752 18.5312 9.49219C18.5312 12.0192 17.723 12.6454 12.2812 20.5395Z" fill="#101419"/>
</svg>
