<svg width="24" height="24" viewBox="0 0 24 24" fill="none" xmlns="http://www.w3.org/2000/svg">
<path d="M12 18.5032C11.5672 18.5032 11.2132 18.1489 11.2132 17.7158V15.1963C11.2132 14.7633 11.5672 14.409 12 14.409C12.4328 14.409 12.7868 14.7633 12.7868 15.1963V17.7158C12.7868 18.1489 12.4328 18.5032 12 18.5032ZM20.8125 12.6768V20.2354C20.8125 21.2786 19.9667 22.125 18.9241 22.125H5.07589C4.03334 22.125 3.1875 21.2786 3.1875 20.2354V12.6768C3.1875 11.6335 4.03334 10.7871 5.07589 10.7871H5.70536V8.2676C5.70536 4.78751 8.53795 1.95698 12.0197 1.96879C15.4975 1.9806 18.2946 4.84656 18.2946 8.32665V10.7871H18.9241C19.9667 10.7871 20.8125 11.6335 20.8125 12.6768ZM6.96429 10.7871H17.0357V8.2676C17.0357 5.48825 14.7775 3.22855 12 3.22855C9.22249 3.22855 6.96429 5.48825 6.96429 8.2676V10.7871ZM19.5536 20.2354V12.6768C19.5536 12.3303 19.2703 12.0469 18.9241 12.0469H5.07589C4.72969 12.0469 4.44643 12.3303 4.44643 12.6768V20.2354C4.44643 20.5818 4.72969 20.8652 5.07589 20.8652H18.9241C19.2703 20.8652 19.5536 20.5818 19.5536 20.2354Z" fill="#101419"/>
</svg>
