<svg width="24" height="24" viewBox="0 0 24 24" fill="none" xmlns="http://www.w3.org/2000/svg">
<path d="M3.84915 4.5H9.02025C9.27881 4.5 9.49035 4.71226 9.49035 4.97168V5.28613C9.49035 5.54556 9.27881 5.75781 9.02025 5.75781H3.84915C3.50441 5.75781 3.22235 6.04082 3.22235 6.38672V17.707C3.22235 18.0529 3.50441 18.3359 3.84915 18.3359H9.02025C9.27881 18.3359 9.49035 18.5482 9.49035 18.8076V19.1221C9.49035 19.3815 9.27881 19.5938 9.02025 19.5938H3.84915C2.81101 19.5938 1.96875 18.7487 1.96875 17.707V6.38672C1.96875 5.34509 2.81101 4.5 3.84915 4.5ZM14.779 5.26648L14.5008 5.54556C14.3167 5.7303 14.3167 6.02903 14.5008 6.21377L19.6719 11.3787H8.70685C8.4483 11.3787 8.23675 11.5909 8.23675 11.8503V12.2434C8.23675 12.5028 8.4483 12.7151 8.70685 12.7151H19.6719L14.5048 17.88C14.3206 18.0647 14.3206 18.3635 14.5048 18.5482L14.7829 18.8273C14.967 19.012 15.2647 19.012 15.4489 18.8273L21.8932 12.381C22.0773 12.1962 22.0773 11.8975 21.8932 11.7128L15.445 5.26648C15.2608 5.08174 14.9631 5.08174 14.779 5.26648Z" fill="#101419"/>
</svg>
