<svg width="24" height="24" viewBox="0 0 24 24" fill="none" xmlns="http://www.w3.org/2000/svg">
<path d="M20.1504 4.5H3.84961C2.81122 4.5 1.96875 5.34509 1.96875 6.38672V17.707C1.96875 18.7487 2.81122 19.5938 3.84961 19.5938H20.1504C21.1888 19.5938 22.0312 18.7487 22.0312 17.707V6.38672C22.0312 5.34509 21.1888 4.5 20.1504 4.5ZM3.84961 5.75781H20.1504C20.4952 5.75781 20.7773 6.04082 20.7773 6.38672V8.01401C19.9192 8.74119 18.6927 9.74351 14.8761 12.7819C14.2139 13.3086 12.9091 14.5782 12 14.5625C11.0909 14.5782 9.78215 13.3086 9.12385 12.7819C5.30728 9.74351 4.0808 8.74119 3.22266 8.01401V6.38672C3.22266 6.04082 3.50479 5.75781 3.84961 5.75781ZM20.1504 18.3359H3.84961C3.50479 18.3359 3.22266 18.0529 3.22266 17.707V9.64917C4.11606 10.3842 5.52671 11.5202 8.34408 13.7646C9.14736 14.4092 10.5658 15.8282 12 15.8203C13.4263 15.8321 14.833 14.4249 15.6559 13.7646C18.4733 11.5202 19.8839 10.3842 20.7773 9.64917V17.707C20.7773 18.0529 20.4952 18.3359 20.1504 18.3359Z" fill="#101419"/>
</svg>
