<svg width="24" height="24" viewBox="0 0 24 24" fill="none" xmlns="http://www.w3.org/2000/svg">
<path d="M13.25 11.0596C13.25 10.8872 13.1094 10.7461 12.9375 10.7461H11.0625C10.8906 10.7461 10.75 10.8872 10.75 11.0596V13.2539H8.5625C8.39062 13.2539 8.25 13.395 8.25 13.5674V15.4482C8.25 15.6207 8.39062 15.7617 8.5625 15.7617H10.75V17.9561C10.75 18.1285 10.8906 18.2695 11.0625 18.2695H12.9375C13.1094 18.2695 13.25 18.1285 13.25 17.9561V15.7617H15.4375C15.6094 15.7617 15.75 15.6207 15.75 15.4482V13.5674C15.75 13.395 15.6094 13.2539 15.4375 13.2539H13.25V11.0596ZM18.9492 5.80884L15.6719 2.52125C15.3203 2.16859 14.8438 1.96875 14.3477 1.96875H6.375C5.33984 1.97267 4.5 2.81514 4.5 3.85353V20.1504C4.5 21.1888 5.33984 22.0312 6.375 22.0312H17.625C18.6602 22.0312 19.5 21.1888 19.5 20.1504V7.14111C19.5 6.64347 19.3008 6.1615 18.9492 5.80884ZM14.5 3.24617C14.6094 3.2736 14.707 3.32845 14.7891 3.41074L18.0664 6.69833C18.1484 6.78062 18.2031 6.87858 18.2305 6.98829H14.5V3.24617ZM18.25 20.1504C18.25 20.4952 17.9688 20.7773 17.625 20.7773H6.375C6.03125 20.7773 5.75 20.4952 5.75 20.1504V3.85353C5.75 3.5087 6.03125 3.22266 6.375 3.22266H13.25V7.30177C13.25 7.82293 13.668 8.23828 14.1875 8.23828H18.25V20.1504Z" fill="#101419"/>
</svg>
