<svg width="24" height="24" viewBox="0 0 24 24" fill="none" xmlns="http://www.w3.org/2000/svg">
<path d="M5.86979 4.21875C3.71725 4.21875 1.96875 5.96258 1.96875 8.10938V15.8906C1.96875 18.0374 3.71725 19.7812 5.86979 19.7812C8.02233 19.7812 9.77083 18.0374 9.77083 15.8906V8.10938C9.77083 5.96258 8.02233 4.21875 5.86979 4.21875ZM8.65625 15.8906C8.65625 17.4226 7.40583 18.6696 5.86979 18.6696C4.33376 18.6696 3.08333 17.4226 3.08333 15.8906V13.1116H8.65625V15.8906ZM8.65625 12H3.08333V8.10938C3.08333 6.57744 4.33376 5.33036 5.86979 5.33036C7.40583 5.33036 8.65625 6.57744 8.65625 8.10938V12ZM16.4583 8.66518C13.3793 8.66518 10.8854 11.1524 10.8854 14.2232C10.8854 17.294 13.3793 19.7812 16.4583 19.7812C19.5374 19.7812 22.0312 17.294 22.0312 14.2232C22.0312 11.1524 19.5374 8.66518 16.4583 8.66518ZM16.4583 18.6696C13.9958 18.6696 12 16.6792 12 14.2232C12 13.195 12.3622 12.264 12.9509 11.5102L19.1821 17.7248C18.4228 18.3084 17.4893 18.6696 16.4583 18.6696ZM19.9658 16.9362L13.7381 10.7251C14.4939 10.1415 15.4273 9.77679 16.4583 9.77679C18.9209 9.77679 20.9167 11.7673 20.9167 14.2232C20.9167 15.2515 20.5544 16.1824 19.9658 16.9362Z" fill="#101419"/>
</svg>
