<svg width="24" height="24" viewBox="0 0 24 24" fill="none" xmlns="http://www.w3.org/2000/svg">
<path d="M17.625 4.47656H14.1641C14.1797 4.37468 14.1875 4.26888 14.1875 4.16309C14.1875 2.95228 13.207 1.96875 12 1.96875C10.793 1.96875 9.8125 2.95228 9.8125 4.16309C9.8125 4.26888 9.82031 4.37468 9.83594 4.47656H6.375C5.33984 4.47656 4.5 5.31903 4.5 6.35742V20.1504C4.5 21.1888 5.33984 22.0312 6.375 22.0312H17.625C18.6602 22.0312 19.5 21.1888 19.5 20.1504V6.35742C19.5 5.31903 18.6602 4.47656 17.625 4.47656ZM12 3.22266C12.5195 3.22266 12.9375 3.64193 12.9375 4.16309C12.9375 4.68424 12.5195 5.10352 12 5.10352C11.4805 5.10352 11.0625 4.68424 11.0625 4.16309C11.0625 3.64193 11.4805 3.22266 12 3.22266ZM18.25 20.1504C18.25 20.4952 17.9688 20.7773 17.625 20.7773H6.375C6.03125 20.7773 5.75 20.4952 5.75 20.1504V6.35742C5.75 6.0126 6.03125 5.73047 6.375 5.73047H8.25V6.51416C8.25 6.77278 8.46094 6.98438 8.71875 6.98438H15.2812C15.5391 6.98438 15.75 6.77278 15.75 6.51416V5.73047H17.625C17.9688 5.73047 18.25 6.0126 18.25 6.35742V20.1504ZM15.4375 13.2539H13.25V11.0596C13.25 10.8872 13.1094 10.7461 12.9375 10.7461H11.0625C10.8906 10.7461 10.75 10.8872 10.75 11.0596V13.2539H8.5625C8.39062 13.2539 8.25 13.395 8.25 13.5674V15.4482C8.25 15.6207 8.39062 15.7617 8.5625 15.7617H10.75V17.9561C10.75 18.1285 10.8906 18.2695 11.0625 18.2695H12.9375C13.1094 18.2695 13.25 18.1285 13.25 17.9561V15.7617H15.4375C15.6094 15.7617 15.75 15.6207 15.75 15.4482V13.5674C15.75 13.395 15.6094 13.2539 15.4375 13.2539Z" fill="#101419"/>
</svg>
