<svg width="24" height="24" viewBox="0 0 24 24" fill="none" xmlns="http://www.w3.org/2000/svg">
<path d="M15.3193 12.6H13.207V10.5C13.207 10.335 13.0712 10.2 12.9053 10.2H11.0947C10.9288 10.2 10.793 10.335 10.793 10.5V12.6H8.68066C8.5147 12.6 8.37891 12.735 8.37891 12.9V14.7C8.37891 14.865 8.5147 15 8.68066 15H10.793V17.1C10.793 17.265 10.9288 17.4 11.0947 17.4H12.9053C13.0712 17.4 13.207 17.265 13.207 17.1V15H15.3193C15.4853 15 15.6211 14.865 15.6211 14.7V12.9C15.6211 12.735 15.4853 12.6 15.3193 12.6ZM19.8457 6.6H15.6211V3.9C15.6211 3.40125 15.2175 3 14.7158 3H9.28418C8.78251 3 8.37891 3.40125 8.37891 3.9V6.6H4.1543C3.15472 6.6 2.34375 7.40625 2.34375 8.4V19.2C2.34375 20.1938 3.15472 21 4.1543 21H19.8457C20.8453 21 21.6562 20.1938 21.6562 19.2V8.4C21.6562 7.40625 20.8453 6.6 19.8457 6.6ZM9.58594 4.2H14.4141V6.6H9.58594V4.2ZM20.4492 19.2C20.4492 19.53 20.1776 19.8 19.8457 19.8H4.1543C3.82236 19.8 3.55078 19.53 3.55078 19.2V8.4C3.55078 8.07 3.82236 7.8 4.1543 7.8H19.8457C20.1776 7.8 20.4492 8.07 20.4492 8.4V19.2Z" fill="#101419"/>
</svg>
