<svg width="24" height="24" viewBox="0 0 24 24" fill="none" xmlns="http://www.w3.org/2000/svg">
<path d="M11.9531 9.88816C13.1199 9.88816 14.0625 10.8319 14.0625 12C14.0625 13.1681 13.1199 14.1118 11.9531 14.1118C10.7864 14.1118 9.84375 13.1681 9.84375 12C9.84375 10.8319 10.7864 9.88816 11.9531 9.88816ZM9.84375 4.08059C9.84375 5.2487 10.7864 6.19243 11.9531 6.19243C13.1199 6.19243 14.0625 5.2487 14.0625 4.08059C14.0625 2.91248 13.1199 1.96875 11.9531 1.96875C10.7864 1.96875 9.84375 2.91248 9.84375 4.08059ZM9.84375 19.9194C9.84375 21.0875 10.7864 22.0312 11.9531 22.0312C13.1199 22.0312 14.0625 21.0875 14.0625 19.9194C14.0625 18.7513 13.1199 17.8076 11.9531 17.8076C10.7864 17.8076 9.84375 18.7513 9.84375 19.9194Z" fill="#101419"/>
</svg>
