<svg width="24" height="24" viewBox="0 0 24 24" fill="none" xmlns="http://www.w3.org/2000/svg">
<path fill-rule="evenodd" clip-rule="evenodd" d="M11.8594 1.96875C8.36989 1.96875 5.43843 4.5815 5.05308 8.03507L4.77434 10.5332C4.6419 11.7202 4.25391 12.8648 3.63686 13.8889L2.98635 14.9685C2.79432 15.2872 2.63508 15.5515 2.52079 15.7694C2.40623 15.9879 2.30276 16.221 2.26839 16.4718C2.14722 17.3562 2.63398 18.2123 3.45788 18.5639C3.69157 18.6636 3.94556 18.6952 4.19258 18.7097C4.43905 18.7243 4.74854 18.7243 5.12178 18.7242H8.01992C8.24407 19.6394 8.71978 20.4637 9.39469 21.0654C10.0879 21.6833 10.9536 22.0312 11.8594 22.0312C12.7651 22.0312 13.6309 21.6833 14.3241 21.0654C14.999 20.4637 15.4747 19.6394 15.6988 18.7242H18.597C18.9702 18.7243 19.2797 18.7243 19.5262 18.7097C19.7732 18.6952 20.0272 18.6636 20.2609 18.5639C21.0848 18.2123 21.5715 17.3562 21.4504 16.4718C21.416 16.221 21.3125 15.9879 21.198 15.7694C21.0837 15.5515 20.9244 15.2872 20.7324 14.9685L20.0819 13.8889C19.4648 12.8648 19.0769 11.7202 18.9444 10.5332L18.6657 8.03508C18.2803 4.58151 15.3489 1.96875 11.8594 1.96875ZM14.3165 18.7242H9.40221C9.58853 19.2685 9.89494 19.7359 10.2807 20.0798C10.7475 20.4959 11.303 20.7084 11.8594 20.7084C12.4158 20.7084 12.9712 20.4959 13.438 20.0798C13.8238 19.7359 14.1302 19.2685 14.3165 18.7242ZM6.37334 8.18115C6.68394 5.3975 9.04677 3.29155 11.8594 3.29155C14.672 3.29155 17.0348 5.3975 17.3454 8.18115L17.6242 10.6793C17.7777 12.0554 18.2275 13.3823 18.9428 14.5695L19.5827 15.6315C19.788 15.9722 19.9266 16.2028 20.0205 16.3818C20.1162 16.5643 20.1317 16.6325 20.1342 16.6506C20.1746 16.9454 20.0123 17.2308 19.7377 17.348C19.7208 17.3552 19.6541 17.3771 19.4477 17.3892C19.2452 17.4012 18.9754 17.4014 18.5763 17.4014H5.14244C4.74334 17.4014 4.47352 17.4012 4.27108 17.3892C4.06467 17.3771 3.99797 17.3552 3.98108 17.348C3.70645 17.2308 3.54419 16.9454 3.58458 16.6506C3.58706 16.6325 3.60254 16.5643 3.69826 16.3818C3.79214 16.2028 3.93073 15.9722 4.13606 15.6315L4.77594 14.5695C5.49128 13.3823 5.94106 12.0554 6.0946 10.6793L6.37334 8.18115Z" fill="#101419"/>
</svg>
