<svg width="24" height="24" viewBox="0 0 24 24" fill="none" xmlns="http://www.w3.org/2000/svg">
<path d="M20.3408 4.97789L19.0221 3.65918C18.583 3.21973 18.0071 3 17.4313 3C16.8554 3 16.2795 3.21973 15.8401 3.65883L3.45179 16.0472L3.00531 20.0627C2.94906 20.5683 3.34738 21 3.84202 21C3.87331 21 3.9046 20.9982 3.93659 20.9947L7.94931 20.5514L20.3411 8.15953C21.2197 7.28098 21.2197 5.85645 20.3408 4.97789ZM7.43287 19.477L4.1623 19.8395L4.52651 16.564L13.8039 7.2866L16.7137 10.1965L7.43287 19.477ZM19.5455 7.3643L17.509 9.4009L14.5991 6.49102L16.6357 4.45441C16.848 4.24207 17.1307 4.125 17.4313 4.125C17.7318 4.125 18.0141 4.24207 18.2268 4.45441L19.5455 5.77312C19.9839 6.21187 19.9839 6.92555 19.5455 7.3643Z" fill="#101419"/>
</svg>
