<svg width="24" height="24" viewBox="0 0 24 24" fill="none" xmlns="http://www.w3.org/2000/svg">
<path d="M15.525 13.2539C14.3959 13.2539 13.853 13.8809 12 13.8809C10.147 13.8809 9.60804 13.2539 8.475 13.2539C5.55586 13.2539 3.1875 15.6128 3.1875 18.5203V20.1504C3.1875 21.1888 4.03334 22.0312 5.07589 22.0312H18.9241C19.9667 22.0312 20.8125 21.1888 20.8125 20.1504V18.5203C20.8125 15.6128 18.4441 13.2539 15.525 13.2539ZM19.5536 20.1504C19.5536 20.4952 19.2703 20.7773 18.9241 20.7773H5.07589C4.72969 20.7773 4.44643 20.4952 4.44643 20.1504V18.5203C4.44643 16.3064 6.2522 14.5078 8.475 14.5078C9.24609 14.5078 10.0133 15.1348 12 15.1348C13.9828 15.1348 14.7539 14.5078 15.525 14.5078C17.7478 14.5078 19.5536 16.3064 19.5536 18.5203V20.1504ZM12 12C14.7814 12 17.0357 9.75472 17.0357 6.98438C17.0357 4.21403 14.7814 1.96875 12 1.96875C9.21855 1.96875 6.96429 4.21403 6.96429 6.98438C6.96429 9.75472 9.21855 12 12 12ZM12 3.22266C14.0812 3.22266 15.7768 4.91151 15.7768 6.98438C15.7768 9.05724 14.0812 10.7461 12 10.7461C9.91883 10.7461 8.22321 9.05724 8.22321 6.98438C8.22321 4.91151 9.91883 3.22266 12 3.22266Z" fill="#101419"/>
</svg>
