<svg width="24" height="24" viewBox="0 0 24 24" fill="none" xmlns="http://www.w3.org/2000/svg">
<path d="M17.1774 11.7573V12.2427C17.1774 12.5097 16.959 12.7281 16.692 12.7281H12.7281V16.692C12.7281 16.959 12.5097 17.1774 12.2427 17.1774H11.7573C11.4903 17.1774 11.2719 16.959 11.2719 16.692V12.7281H7.30796C7.041 12.7281 6.82258 12.5097 6.82258 12.2427V11.7573C6.82258 11.4903 7.041 11.2719 7.30796 11.2719H11.2719V7.30796C11.2719 7.041 11.4903 6.82258 11.7573 6.82258H12.2427C12.5097 6.82258 12.7281 7.041 12.7281 7.30796V11.2719H16.692C16.959 11.2719 17.1774 11.4903 17.1774 11.7573ZM22.0312 12C22.0312 17.5415 17.5415 22.0312 12 22.0312C6.45854 22.0312 1.96875 17.5415 1.96875 12C1.96875 6.45854 6.45854 1.96875 12 1.96875C17.5415 1.96875 22.0312 6.45854 22.0312 12ZM20.7369 12C20.7369 7.15021 16.8012 3.2631 12 3.2631C7.15021 3.2631 3.2631 7.19875 3.2631 12C3.2631 16.8498 7.19875 20.7369 12 20.7369C16.8498 20.7369 20.7369 16.8012 20.7369 12Z" fill="#101419"/>
</svg>
