<svg width="24" height="24" viewBox="0 0 24 24" fill="none" xmlns="http://www.w3.org/2000/svg">
<path d="M19.1451 4.20536C19.5023 4.20536 19.7946 4.49766 19.7946 4.85491V19.1451C19.7946 19.5023 19.5023 19.7946 19.1451 19.7946H4.85491C4.49766 19.7946 4.20536 19.5023 4.20536 19.1451V4.85491C4.20536 4.49766 4.49766 4.20536 4.85491 4.20536H19.1451ZM19.1451 2.90625H4.85491C3.77909 2.90625 2.90625 3.77909 2.90625 4.85491V19.1451C2.90625 20.2209 3.77909 21.0938 4.85491 21.0938H19.1451C20.2209 21.0938 21.0938 20.2209 21.0938 19.1451V4.85491C21.0938 3.77909 20.2209 2.90625 19.1451 2.90625ZM16.7093 11.2693H12.7307V7.29074C12.7307 7.0228 12.5115 6.80357 12.2436 6.80357H11.7564C11.4885 6.80357 11.2693 7.0228 11.2693 7.29074V11.2693H7.29074C7.0228 11.2693 6.80357 11.4885 6.80357 11.7564V12.2436C6.80357 12.5115 7.0228 12.7307 7.29074 12.7307H11.2693V16.7093C11.2693 16.9772 11.4885 17.1964 11.7564 17.1964H12.2436C12.5115 17.1964 12.7307 16.9772 12.7307 16.7093V12.7307H16.7093C16.9772 12.7307 17.1964 12.5115 17.1964 12.2436V11.7564C17.1964 11.4885 16.9772 11.2693 16.7093 11.2693Z" fill="#101419"/>
</svg>
