<svg width="24" height="24" viewBox="0 0 24 24" fill="none" xmlns="http://www.w3.org/2000/svg">
<path d="M21.6113 10.7871H13.2129V2.38867C13.2129 2.15667 13.025 1.96875 12.793 1.96875H11.1133C10.8813 1.96875 10.6934 2.15667 10.6934 2.38867V10.7871H2.29492C2.06292 10.7871 1.875 10.975 1.875 11.207V12.8867C1.875 13.1187 2.06292 13.3066 2.29492 13.3066H10.6934V21.7051C10.6934 21.9371 10.8813 22.125 11.1133 22.125H12.793C13.025 22.125 13.2129 21.9371 13.2129 21.7051V13.3066H21.6113C21.8433 13.3066 22.0312 13.1187 22.0312 12.8867V11.207C22.0312 10.975 21.8433 10.7871 21.6113 10.7871Z" fill="#101419"/>
</svg>
