<svg width="24" height="24" viewBox="0 0 24 24" fill="none" xmlns="http://www.w3.org/2000/svg">
<path d="M18.8965 9.49219H18.2695V6.24966C18.2695 5.91699 18.1375 5.59842 17.9024 5.36292L14.875 2.33591C14.6399 2.1008 14.3209 1.96875 13.9882 1.96875H6.92481C6.26495 1.96875 5.73047 2.53026 5.73047 3.22266V9.49219H5.10352C3.37234 9.49219 1.96875 10.8958 1.96875 12.627V16.3887C1.96875 16.7351 2.24931 17.0156 2.5957 17.0156H5.73047V21.4043C5.73047 21.7507 6.01103 22.0312 6.35742 22.0312H17.6426C17.989 22.0312 18.2695 21.7507 18.2695 21.4043V17.0156H21.4043C21.7507 17.0156 22.0312 16.7351 22.0312 16.3887V12.627C22.0312 10.8958 20.6277 9.49219 18.8965 9.49219ZM14.5078 3.74185L16.4964 5.73047H14.5078V3.74185ZM6.98908 3.22266H13.2539V5.73047C13.2539 6.42286 13.8154 6.98438 14.5078 6.98438H17.0156V9.49219H6.98516L6.98908 3.22266ZM17.0156 20.7773H6.98438V17.0156H17.0156V20.7773ZM20.7773 15.7617H3.22266V12.627C3.22266 11.5897 4.0663 10.7461 5.10352 10.7461H18.8965C19.9337 10.7461 20.7773 11.5897 20.7773 12.627V15.7617ZM17.6426 12.3135C17.1234 12.3135 16.7021 12.7343 16.7021 13.2539C16.7021 13.7731 17.1234 14.1943 17.6426 14.1943C18.1618 14.1943 18.583 13.7731 18.583 13.2539C18.583 12.7343 18.1618 12.3135 17.6426 12.3135Z" fill="#101419"/>
</svg>
