<svg width="24" height="24" viewBox="0 0 24 24" fill="none" xmlns="http://www.w3.org/2000/svg">
<path d="M12 15.3977C11.3745 15.3977 10.8674 15.9047 10.8674 16.5302C10.8674 17.1557 11.3745 17.6628 12 17.6628C12.6255 17.6628 13.1326 17.1557 13.1326 16.5302C13.1326 15.9047 12.6255 15.3977 12 15.3977ZM12.3102 14.4269H11.6631C11.395 14.4269 11.1777 14.2096 11.1777 13.9415V13.9261C11.1777 11.0808 14.31 11.3528 14.31 9.58162C14.31 8.772 13.5916 7.95514 11.9867 7.95514C10.8078 7.95514 10.1962 8.34543 9.59165 9.11569C9.43358 9.31713 9.14453 9.35818 8.93444 9.2118L8.40319 8.84169C8.17567 8.68318 8.12571 8.36557 8.2962 8.14691C9.15477 7.04561 10.1734 6.3372 11.9867 6.3372C14.1029 6.3372 15.928 7.54058 15.928 9.58162C15.928 12.3084 12.7956 12.1642 12.7956 13.9261V13.9415C12.7956 14.2096 12.5783 14.4269 12.3102 14.4269ZM12 3.2631C16.7981 3.2631 20.7369 7.1492 20.7369 12C20.7369 16.8252 16.8292 20.7369 12 20.7369C7.17675 20.7369 3.2631 16.8311 3.2631 12C3.2631 7.17841 7.17052 3.2631 12 3.2631ZM12 1.96875C6.46028 1.96875 1.96875 6.4619 1.96875 12C1.96875 17.5413 6.46028 22.0312 12 22.0312C17.5397 22.0312 22.0312 17.5413 22.0312 12C22.0312 6.4619 17.5397 1.96875 12 1.96875Z" fill="#101419"/>
</svg>
