<svg width="24" height="24" viewBox="0 0 24 24" fill="none" xmlns="http://www.w3.org/2000/svg">
<path d="M21.3987 6.35478L17.6247 2.59835C17.2197 2.19523 16.6704 1.96875 16.0977 1.96875H4.0346C2.84187 1.96875 1.875 2.93112 1.875 4.1183V19.8817C1.875 21.0689 2.84187 22.0312 4.0346 22.0312H19.8717C21.0644 22.0312 22.0312 21.0689 22.0312 19.8817V7.87474C22.0312 7.30464 21.8037 6.7579 21.3987 6.35478ZM14.8326 3.40179V7.70089H6.1942V3.40179H14.8326ZM20.5915 19.8817C20.5915 20.2768 20.2686 20.5982 19.8717 20.5982H4.0346C3.63768 20.5982 3.31473 20.2768 3.31473 19.8817V4.1183C3.31473 3.72323 3.63768 3.40179 4.0346 3.40179H4.75446V8.05915C4.75446 8.65274 5.2379 9.13393 5.83426 9.13393H15.1925C15.7889 9.13393 16.2723 8.65274 16.2723 8.05915V3.42377C16.3989 3.45487 16.5145 3.51983 16.6067 3.61164L20.3807 7.36807C20.4477 7.43445 20.5009 7.51341 20.5371 7.60038C20.5733 7.68735 20.5918 7.7806 20.5915 7.87474V19.8817ZM11.9531 10.9252C9.77 10.9252 7.99386 12.6931 7.99386 14.8661C7.99386 17.039 9.77 18.8069 11.9531 18.8069C14.1363 18.8069 15.9124 17.039 15.9124 14.8661C15.9124 12.6931 14.1363 10.9252 11.9531 10.9252ZM11.9531 17.3739C10.5638 17.3739 9.43359 16.2489 9.43359 14.8661C9.43359 13.4832 10.5638 12.3583 11.9531 12.3583C13.3424 12.3583 14.4727 13.4832 14.4727 14.8661C14.4727 16.2489 13.3424 17.3739 11.9531 17.3739Z" fill="#101419"/>
</svg>
