<svg width="24" height="24" viewBox="0 0 24 24" fill="none" xmlns="http://www.w3.org/2000/svg">
<path d="M14.1885 10.1937V10.4721C14.1885 10.7018 13.9996 10.8897 13.7687 10.8897H10.83V13.813C10.83 14.0427 10.6411 14.2306 10.4102 14.2306H10.1303C9.89944 14.2306 9.71053 14.0427 9.71053 13.813V10.8897H6.77188C6.54098 10.8897 6.35207 10.7018 6.35207 10.4721V10.1937C6.35207 9.96403 6.54098 9.7761 6.77188 9.7761H9.71053V6.85284C9.71053 6.62315 9.89944 6.43523 10.1303 6.43523H10.4102C10.6411 6.43523 10.83 6.62315 10.83 6.85284V9.7761H13.7687C13.9996 9.7761 14.1885 9.96403 14.1885 10.1937ZM20.7829 20.3903L20.3876 20.7836C20.2232 20.9471 19.9573 20.9471 19.7929 20.7836L15.28 16.2943C15.1995 16.2142 15.1575 16.1098 15.1575 15.9985V15.7027C13.8666 16.865 12.1559 17.5715 10.2773 17.5715C6.2821 17.5715 3.05309 14.4011 3.00061 10.4269C2.94814 6.35519 6.2786 3.04216 10.3717 3.09436C14.3669 3.14656 17.5539 6.35867 17.5539 10.3329C17.5539 12.2017 16.8437 13.9035 15.6753 15.1876H15.9726C16.0846 15.1876 16.1895 15.2329 16.27 15.3094L20.7829 19.7987C20.9474 19.9623 20.9474 20.2268 20.7829 20.3903ZM16.4344 10.3329C16.4344 6.9468 13.6812 4.20798 10.2773 4.20798C6.87333 4.20798 4.1201 6.9468 4.1201 10.3329C4.1201 13.719 6.87333 16.4578 10.2773 16.4578C13.6812 16.4578 16.4344 13.719 16.4344 10.3329Z" fill="#101419"/>
</svg>
