<svg width="24" height="24" viewBox="0 0 24 24" fill="none" xmlns="http://www.w3.org/2000/svg">
<path d="M20.783 19.8422L16.2717 15.3309C16.1912 15.2505 16.0863 15.2085 15.9744 15.2085H15.6142C16.8137 13.9111 17.5481 12.18 17.5481 10.2741C17.5481 6.25584 14.2923 3 10.2741 3C6.25584 3 3 6.25584 3 10.2741C3 14.2923 6.25584 17.5481 10.2741 17.5481C12.18 17.5481 13.9111 16.8137 15.2085 15.6177V15.9744C15.2085 16.0863 15.254 16.1912 15.3309 16.2717L19.8422 20.783C20.0066 20.9473 20.2724 20.9473 20.4368 20.783L20.783 20.4368C20.9473 20.2724 20.9473 20.0066 20.783 19.8422ZM10.2741 16.429C6.87134 16.429 4.11909 13.6768 4.11909 10.2741C4.11909 6.87134 6.87134 4.11909 10.2741 4.11909C13.6768 4.11909 16.429 6.87134 16.429 10.2741C16.429 13.6768 13.6768 16.429 10.2741 16.429Z" fill="#101419"/>
</svg>
