<svg width="24" height="24" viewBox="0 0 24 24" fill="none" xmlns="http://www.w3.org/2000/svg">
<path d="M13.7687 10.9238H6.77188C6.54098 10.9238 6.35207 10.7348 6.35207 10.504V10.2241C6.35207 9.99319 6.54098 9.80428 6.77188 9.80428H13.7687C13.9996 9.80428 14.1885 9.99319 14.1885 10.2241V10.504C14.1885 10.7348 13.9996 10.9238 13.7687 10.9238ZM20.7829 20.4814L20.3876 20.8767C20.2232 21.0411 19.9573 21.0411 19.7929 20.8767L15.28 16.3638C15.1995 16.2833 15.1575 16.1783 15.1575 16.0664V15.769C13.8666 16.9375 12.1559 17.6477 10.2773 17.6477C6.2821 17.6477 3.05309 14.4606 3.00061 10.4655C2.94814 6.37235 6.2786 3.04189 10.3717 3.09436C14.3669 3.14684 17.5539 6.37585 17.5539 10.371C17.5539 12.2497 16.8437 13.9604 15.6753 15.2513H15.9726C16.0846 15.2513 16.1895 15.2967 16.27 15.3737L20.7829 19.8866C20.9474 20.0511 20.9474 20.3169 20.7829 20.4814ZM16.4344 10.371C16.4344 6.96708 13.6812 4.21385 10.2773 4.21385C6.87333 4.21385 4.1201 6.96708 4.1201 10.371C4.1201 13.7749 6.87333 16.5282 10.2773 16.5282C13.6812 16.5282 16.4344 13.7749 16.4344 10.371Z" fill="#101419"/>
</svg>
