<svg width="24" height="24" viewBox="0 0 24 24" fill="none" xmlns="http://www.w3.org/2000/svg">
<path d="M21.1697 13.7505L19.8507 12.9889C19.9336 12.3323 19.9336 11.6677 19.8507 11.0111L21.1697 10.2495C21.5571 10.0259 21.7439 9.56586 21.6165 9.13715C21.1629 7.61025 20.3555 6.23585 19.2893 5.10866C18.9805 4.78224 18.4877 4.71081 18.0986 4.93546L16.7814 5.69581C16.2546 5.29488 15.6792 4.96218 15.0689 4.70563V3.1842C15.0689 2.734 14.7593 2.3427 14.3212 2.23903C12.7985 1.87868 11.2018 1.87864 9.67881 2.23903C9.2407 2.3427 8.93114 2.73396 8.93114 3.1842V4.70563C8.32082 4.96217 7.74539 5.29487 7.21856 5.69581L5.90144 4.93546C5.51228 4.71081 5.01949 4.78224 4.71074 5.10866C3.64449 6.23585 2.83708 7.61029 2.38348 9.13715C2.2561 9.56586 2.44294 10.0259 2.83028 10.2495L4.14934 11.0111C4.06642 11.6677 4.06642 12.3323 4.14934 12.9889L2.83028 13.7505C2.44294 13.9741 2.2561 14.4341 2.38348 14.8629C2.83708 16.3897 3.64449 17.7642 4.71074 18.8913C5.01953 19.2178 5.51232 19.2892 5.90144 19.0646L7.21856 18.3042C7.74539 18.7052 8.32081 19.0379 8.93114 19.2944V20.8158C8.93114 21.266 9.24066 21.6573 9.67881 21.761C11.2015 22.1213 12.7982 22.1214 14.3212 21.761C14.7593 21.6573 15.0689 21.266 15.0689 20.8158V19.2944C15.6792 19.0378 16.2546 18.7051 16.7814 18.3042L18.0986 19.0646C18.4877 19.2892 18.9805 19.2178 19.2893 18.8913C20.3555 17.7642 21.1629 16.3897 21.6165 14.8629C21.7439 14.4341 21.5571 13.9741 21.1697 13.7505ZM18.5211 17.814L16.648 16.7324C15.5563 17.6656 15.1692 17.9004 13.7745 18.3932V20.5563C12.6038 20.7978 11.3962 20.7978 10.2255 20.5563V18.3932C8.86558 17.9127 8.47184 17.6896 7.35204 16.7324L5.47887 17.814C4.68161 16.9205 4.07572 15.8729 3.70197 14.7416L5.57595 13.66C5.31161 12.2274 5.31149 11.7733 5.57595 10.34L3.70197 9.25841C4.07572 8.1271 4.68165 7.07948 5.47887 6.18557L7.35204 7.26797C8.45942 6.3201 8.85122 6.09233 10.2255 5.60679V3.44367C11.3961 3.20179 12.6039 3.20179 13.7745 3.44367V5.60683C15.1489 6.09241 15.5407 6.32022 16.648 7.26801L18.5211 6.18561C19.3183 7.07948 19.9243 8.1271 20.298 9.25845L18.4241 10.34C18.6884 11.773 18.6885 12.2267 18.4241 13.66L20.298 14.7416C19.9243 15.8729 19.3184 16.9205 18.5211 17.814ZM12 8.11695C9.85881 8.11695 8.11686 9.85887 8.11686 12C8.11686 14.1412 9.85881 15.8831 12 15.8831C14.1412 15.8831 15.8831 14.1412 15.8831 12C15.8831 9.85887 14.1412 8.11695 12 8.11695ZM12 14.5887C10.5725 14.5887 9.41124 13.4275 9.41124 12C9.41124 10.5726 10.5725 9.41131 12 9.41131C13.4275 9.41131 14.5888 10.5726 14.5888 12C14.5888 13.4275 13.4275 14.5887 12 14.5887Z" fill="#101419"/>
</svg>
