<svg width="24" height="24" viewBox="0 0 24 24" fill="none" xmlns="http://www.w3.org/2000/svg">
<path d="M16.959 14.5078C15.84 14.5078 14.8385 14.9976 14.1499 15.7735L10.4136 13.4342C10.7892 12.5172 10.7931 11.4828 10.4136 10.5658L14.1499 8.22653C14.8385 9.00238 15.84 9.49219 16.959 9.49219C19.0325 9.49219 20.7148 7.80725 20.7148 5.73047C20.7148 3.65369 19.0325 1.96875 16.959 1.96875C14.8854 1.96875 13.2031 3.65369 13.2031 5.73047C13.2031 6.23987 13.3048 6.72184 13.4848 7.16462L9.74851 9.50394C9.06385 8.72809 8.06229 8.23828 6.94336 8.23828C4.86981 8.23828 3.1875 9.92322 3.1875 12C3.1875 14.0768 4.86981 15.7617 6.94336 15.7617C8.06229 15.7617 9.06385 15.2719 9.75243 14.4961L13.4887 16.8354C13.3048 17.2782 13.207 17.7601 13.207 18.2695C13.207 20.3463 14.8893 22.0312 16.9629 22.0312C19.0364 22.0312 20.7188 20.3463 20.7188 18.2695C20.7148 16.1927 19.0325 14.5078 16.959 14.5078ZM16.959 3.22266C18.34 3.22266 19.4629 4.34725 19.4629 5.73047C19.4629 7.11368 18.34 8.23828 16.959 8.23828C15.5779 8.23828 14.4551 7.11368 14.4551 5.73047C14.4551 4.34725 15.5779 3.22266 16.959 3.22266ZM6.94336 14.5078C5.5623 14.5078 4.43945 13.3832 4.43945 12C4.43945 10.6168 5.5623 9.49219 6.94336 9.49219C8.32442 9.49219 9.44726 10.6168 9.44726 12C9.44726 13.3832 8.32442 14.5078 6.94336 14.5078ZM16.959 20.7773C15.5779 20.7773 14.4551 19.6527 14.4551 18.2695C14.4551 16.8863 15.5779 15.7617 16.959 15.7617C18.34 15.7617 19.4629 16.8863 19.4629 18.2695C19.4629 19.6527 18.34 20.7773 16.959 20.7773Z" fill="#101419"/>
</svg>
