<svg width="24" height="24" viewBox="0 0 24 24" fill="none" xmlns="http://www.w3.org/2000/svg">
<path d="M19.0714 3H4.92857C3.86384 3 3 3.86384 3 4.92857V19.0714C3 20.1362 3.86384 21 4.92857 21H19.0714C20.1362 21 21 20.1362 21 19.0714V4.92857C21 3.86384 20.1362 3 19.0714 3ZM19.0714 4.28571C19.425 4.28571 19.7143 4.575 19.7143 4.92857V19.0714C19.7143 19.425 19.425 19.7143 19.0714 19.7143H4.92857C4.575 19.7143 4.28571 19.425 4.28571 19.0714V4.92857C4.28571 4.575 4.575 4.28571 4.92857 4.28571H19.0714Z" fill="#101419"/>
</svg>
