<svg width="24" height="24" viewBox="0 0 24 24" fill="none" xmlns="http://www.w3.org/2000/svg">
<path d="M20.4681 9.029L15.3324 8.28026L13.037 3.62615C12.6257 2.79656 11.4341 2.78602 11.0193 3.62615L8.72387 8.28026L3.58818 9.029C2.6672 9.16257 2.2981 10.298 2.96599 10.9483L6.68155 14.5689L5.80275 19.6835C5.64457 20.608 6.61827 21.3005 7.4338 20.8682L12.0282 18.4532L16.6225 20.8682C17.438 21.297 18.4117 20.608 18.2536 19.6835L17.3748 14.5689L21.0903 10.9483C21.7582 10.298 21.3891 9.16257 20.4681 9.029ZM16.169 14.1752L17.1463 19.8698L12.0282 17.1842L6.91355 19.8734L7.89077 14.1788L3.74988 10.1398L9.46909 9.31021L12.0282 4.12531L14.5872 9.31021L20.3064 10.1398L16.169 14.1752Z" fill="#101419"/>
</svg>
