<svg width="24" height="24" viewBox="0 0 24 24" fill="none" xmlns="http://www.w3.org/2000/svg">
<path d="M19.4648 3.9375H4.53516C3.58375 3.9375 2.8125 4.711 2.8125 5.66518V18.3348C2.8125 19.289 3.58375 20.0625 4.53516 20.0625H19.4648C20.4163 20.0625 21.1875 19.289 21.1875 18.3348V5.66518C21.1875 4.711 20.4163 3.9375 19.4648 3.9375ZM8.55469 18.9107H4.53516C4.21801 18.9107 3.96094 18.6529 3.96094 18.3348V15.4554H8.55469V18.9107ZM8.55469 14.3036H3.96094V10.8482H8.55469V14.3036ZM8.55469 9.69643H3.96094V6.24107H8.55469V9.69643ZM14.2969 18.9107H9.70312V15.4554H14.2969V18.9107ZM14.2969 14.3036H9.70312V10.8482H14.2969V14.3036ZM14.2969 9.69643H9.70312V6.24107H14.2969V9.69643ZM20.0391 15.4554V18.3348C20.0391 18.6529 19.782 18.9107 19.4648 18.9107H15.4453V15.4554H20.0391ZM20.0391 14.3036H15.4453V10.8482H20.0391V14.3036ZM20.0391 9.69643H15.4453V6.24107H20.0391V9.69643Z" fill="#101419"/>
</svg>
