<svg width="24" height="24" viewBox="0 0 24 24" fill="none" xmlns="http://www.w3.org/2000/svg">
<path d="M7.70331 10.5024C7.67417 10.473 7.63953 10.4497 7.60136 10.4338C7.5632 10.4179 7.52227 10.4097 7.48093 10.4097C7.4396 10.4097 7.39867 10.4179 7.36051 10.4338C7.32234 10.4497 7.28769 10.473 7.25856 10.5024L4.47644 13.2913L2.94823 11.7594C2.88944 11.7005 2.80974 11.6674 2.72664 11.6674C2.64353 11.6674 2.56383 11.7005 2.50505 11.7594L2.06069 12.2048C2.03154 12.234 2.00842 12.2686 1.99265 12.3068C1.97687 12.3449 1.96875 12.3858 1.96875 12.4271C1.96875 12.4684 1.97687 12.5093 1.99265 12.5475C2.00842 12.5856 2.03154 12.6203 2.06069 12.6494L4.25504 14.8491C4.31382 14.908 4.39353 14.9411 4.47663 14.9411C4.55974 14.9411 4.63944 14.908 4.69822 14.8491L8.14649 11.3925C8.17564 11.3633 8.19876 11.3287 8.21453 11.2905C8.23031 11.2524 8.23843 11.2115 8.23843 11.1702C8.23843 11.1289 8.23031 11.088 8.21453 11.0499C8.19876 11.0117 8.17564 10.9771 8.14649 10.9479L7.70331 10.5024ZM4.47369 17.4549C3.7813 17.4549 3.2041 18.0177 3.2041 18.7118C3.2041 19.4059 3.7813 19.9688 4.47369 19.9688C4.80625 19.9688 5.12519 19.8363 5.36034 19.6006C5.5955 19.3649 5.72761 19.0452 5.72761 18.7118C5.72761 18.3785 5.5955 18.0587 5.36034 17.823C5.12519 17.5873 4.80625 17.4549 4.47369 17.4549ZM7.70331 4.21775C7.67417 4.18836 7.63953 4.16503 7.60136 4.14911C7.5632 4.13319 7.52227 4.125 7.48093 4.125C7.4396 4.125 7.39867 4.13319 7.36051 4.14911C7.32234 4.16503 7.28769 4.18836 7.25856 4.21775L4.47644 7.00658L2.94823 5.47469C2.88944 5.4158 2.80974 5.38273 2.72664 5.38273C2.64353 5.38273 2.56383 5.4158 2.50505 5.47469L2.06069 5.92012C2.03154 5.9493 2.00842 5.98396 1.99265 6.0221C1.97687 6.06025 1.96875 6.10114 1.96875 6.14244C1.96875 6.18373 1.97687 6.22462 1.99265 6.26277C2.00842 6.30092 2.03154 6.33557 2.06069 6.36476L4.25504 8.5644C4.31382 8.62329 4.39353 8.65636 4.47663 8.65636C4.55974 8.65636 4.63944 8.62329 4.69822 8.5644L8.14649 5.10782C8.17564 5.07864 8.19876 5.04398 8.21453 5.00583C8.23031 4.96769 8.23843 4.9268 8.23843 4.8855C8.23843 4.8442 8.23031 4.80331 8.21453 4.76517C8.19876 4.72702 8.17564 4.69236 8.14649 4.66318L7.70331 4.21775ZM21.7178 18.0833H9.80558C9.72244 18.0833 9.6427 18.1165 9.58391 18.1754C9.52512 18.2343 9.4921 18.3142 9.4921 18.3976V19.026C9.4921 19.1094 9.52512 19.1893 9.58391 19.2482C9.6427 19.3072 9.72244 19.3403 9.80558 19.3403H21.7178C21.8009 19.3403 21.8806 19.3072 21.9394 19.2482C21.9982 19.1893 22.0312 19.1094 22.0312 19.026V18.3976C22.0312 18.3142 21.9982 18.2343 21.9394 18.1754C21.8806 18.1165 21.8009 18.0833 21.7178 18.0833ZM21.7178 5.51397H9.80558C9.72244 5.51397 9.6427 5.54708 9.58391 5.60601C9.52512 5.66494 9.4921 5.74486 9.4921 5.8282V6.45667C9.4921 6.54001 9.52512 6.61994 9.58391 6.67887C9.6427 6.7378 9.72244 6.77091 9.80558 6.77091H21.7178C21.8009 6.77091 21.8806 6.7378 21.9394 6.67887C21.9982 6.61994 22.0312 6.54001 22.0312 6.45667V5.8282C22.0312 5.74486 21.9982 5.66494 21.9394 5.60601C21.8806 5.54708 21.8009 5.51397 21.7178 5.51397ZM21.7178 11.7987H9.80558C9.72244 11.7987 9.6427 11.8318 9.58391 11.8907C9.52512 11.9496 9.4921 12.0296 9.4921 12.1129V12.7414C9.4921 12.8247 9.52512 12.9046 9.58391 12.9636C9.6427 13.0225 9.72244 13.0556 9.80558 13.0556H21.7178C21.8009 13.0556 21.8806 13.0225 21.9394 12.9636C21.9982 12.9046 22.0312 12.8247 22.0312 12.7414V12.1129C22.0312 12.0296 21.9982 11.9496 21.9394 11.8907C21.8806 11.8318 21.8009 11.7987 21.7178 11.7987Z" fill="#101419"/>
</svg>
