<svg width="24" height="24" viewBox="0 0 24 24" fill="none" xmlns="http://www.w3.org/2000/svg">
<path d="M14.8025 18.8965H15.4252C15.5078 18.8965 15.587 18.8635 15.6454 18.8047C15.7038 18.7459 15.7366 18.6661 15.7366 18.583V7.9248C15.7366 7.84167 15.7038 7.76193 15.6454 7.70314C15.587 7.64435 15.5078 7.61133 15.4252 7.61133H14.8025C14.7199 7.61133 14.6407 7.64435 14.5823 7.70314C14.5239 7.76193 14.4911 7.84167 14.4911 7.9248V18.583C14.4911 18.6661 14.5239 18.7459 14.5823 18.8047C14.6407 18.8635 14.7199 18.8965 14.8025 18.8965ZM8.57478 18.8965H9.19754C9.28013 18.8965 9.35933 18.8635 9.41773 18.8047C9.47612 18.7459 9.50893 18.6661 9.50893 18.583V7.9248C9.50893 7.84167 9.47612 7.76193 9.41773 7.70314C9.35933 7.64435 9.28013 7.61133 9.19754 7.61133H8.57478C8.49219 7.61133 8.41299 7.64435 8.35459 7.70314C8.2962 7.76193 8.26339 7.84167 8.26339 7.9248V18.583C8.26339 18.6661 8.2962 18.7459 8.35459 18.8047C8.41299 18.8635 8.49219 18.8965 8.57478 18.8965ZM20.4074 4.47656H16.3594L15.0516 2.72109C14.8775 2.4875 14.6519 2.2979 14.3925 2.16732C14.133 2.03673 13.847 1.96875 13.5569 1.96875L10.4431 1.96875C10.153 1.96875 9.86697 2.03673 9.60755 2.16732C9.34813 2.2979 9.12246 2.4875 8.94844 2.72109L7.64062 4.47656H3.59263C3.51005 4.47656 3.43085 4.50959 3.37245 4.56838C3.31406 4.62717 3.28125 4.7069 3.28125 4.79004V5.41699C3.28125 5.50013 3.31406 5.57987 3.37245 5.63865C3.43085 5.69744 3.51005 5.73047 3.59263 5.73047H4.52679V20.1504C4.52679 20.6492 4.72362 21.1276 5.074 21.4804C5.42437 21.8331 5.89958 22.0312 6.39509 22.0312H17.6049C18.1004 22.0312 18.5756 21.8331 18.926 21.4804C19.2764 21.1276 19.4732 20.6492 19.4732 20.1504V5.73047H20.4074C20.49 5.73047 20.5692 5.69744 20.6275 5.63865C20.6859 5.57987 20.7188 5.50013 20.7188 5.41699V4.79004C20.7188 4.7069 20.6859 4.62717 20.6275 4.56838C20.5692 4.50959 20.49 4.47656 20.4074 4.47656ZM9.94487 3.47344C10.0031 3.3958 10.0783 3.33276 10.1648 3.28926C10.2512 3.24575 10.3465 3.22296 10.4431 3.22266H13.5569C13.6535 3.22296 13.7488 3.24575 13.8352 3.28926C13.9217 3.33276 13.9969 3.3958 14.0551 3.47344L14.8025 4.47656H9.19754L9.94487 3.47344ZM18.2277 20.1504C18.2277 20.3167 18.1621 20.4761 18.0453 20.5937C17.9285 20.7113 17.7701 20.7773 17.6049 20.7773H6.39509C6.22992 20.7773 6.07152 20.7113 5.95473 20.5937C5.83793 20.4761 5.77232 20.3167 5.77232 20.1504V5.73047H18.2277V20.1504ZM11.6886 18.8965H12.3114C12.394 18.8965 12.4732 18.8635 12.5316 18.8047C12.59 18.7459 12.6228 18.6661 12.6228 18.583V7.9248C12.6228 7.84167 12.59 7.76193 12.5316 7.70314C12.4732 7.64435 12.394 7.61133 12.3114 7.61133H11.6886C11.606 7.61133 11.5268 7.64435 11.4684 7.70314C11.41 7.76193 11.3772 7.84167 11.3772 7.9248V18.583C11.3772 18.6661 11.41 18.7459 11.4684 18.8047C11.5268 18.8635 11.606 18.8965 11.6886 18.8965Z" fill="#101419"/>
</svg>
