<svg width="24" height="24" viewBox="0 0 24 24" fill="none" xmlns="http://www.w3.org/2000/svg">
<path d="M2.45413 1.96876H2.85862C3.12667 1.96876 3.344 2.18609 3.344 2.45414V6.92877C5.09122 3.95264 8.32884 1.95723 12.0321 1.9688C17.5487 1.98607 22.0399 6.49936 22.0312 12.016C22.0226 17.5488 17.5347 22.0312 12 22.0312C9.41428 22.0312 7.0571 21.0529 5.27833 19.4463C5.07152 19.2595 5.06177 18.9382 5.25884 18.7411L5.54477 18.4552C5.72691 18.2731 6.02 18.2645 6.21144 18.4368C7.74408 19.8162 9.7727 20.656 12 20.656C16.7626 20.656 20.656 16.8 20.656 12C20.656 7.23743 16.8 3.34401 12 3.34401C8.64835 3.34401 5.74111 5.24821 4.30308 8.03605H8.9259C9.19396 8.03605 9.41129 8.25338 9.41129 8.52143V8.92591C9.41129 9.19397 9.19396 9.4113 8.9259 9.4113H2.45413C2.18608 9.4113 1.96875 9.19397 1.96875 8.92591V2.45414C1.96875 2.18609 2.18608 1.96876 2.45413 1.96876Z" fill="#101419"/>
</svg>
