<svg width="24" height="24" viewBox="0 0 24 24" fill="none" xmlns="http://www.w3.org/2000/svg">
<path d="M20.9165 6.38281C20.7005 6.38281 20.481 6.44653 20.2824 6.58459L16.4608 9.05908V6.94214C16.4608 6.00757 15.6526 5.25 14.6563 5.25H3.77329C2.77696 5.25 1.96875 6.00757 1.96875 6.94214V17.1516C1.96875 18.0862 2.77696 18.8438 3.77329 18.8438H14.6563C15.6526 18.8438 16.4608 18.0862 16.4608 17.1516V15.0347L20.2789 17.5092C20.4775 17.6508 20.7005 17.7109 20.913 17.7109C21.4913 17.7109 22.0312 17.2507 22.0312 16.5958V7.49792C22.0347 6.84302 21.4947 6.38281 20.9165 6.38281ZM15.3461 17.1516C15.3461 17.4561 15.029 17.7109 14.6563 17.7109H3.77329C3.40054 17.7109 3.08353 17.4561 3.08353 17.1516V6.94214C3.08353 6.6377 3.40054 6.38281 3.77329 6.38281H14.6563C15.029 6.38281 15.3461 6.6377 15.3461 6.94214V17.1516ZM20.9199 16.5958L20.8781 16.5498L16.4608 13.6895V10.4008L20.9199 7.51562V16.5958Z" fill="#101419"/>
</svg>
